<svg width="494" height="74" viewBox="0 0 494 74" fill="none" xmlns="http://www.w3.org/2000/svg">
<path d="M52.1466 0.961426H19.3136L0.965767 19.2212V54.7797L19.3136 73.0395H52.1466L56.975 68.2343H108.156L112.984 73.0395H393.501L398.329 68.2343H444.682L449.51 73.0395H473.652L492 54.7797V19.2212L473.652 0.961426H432.128L427.3 5.76663H56.975L52.1466 0.961426Z" fill="#031A2A" fill-opacity="0.3" stroke="#6DCEFF" stroke-opacity="0.3"/>
<path d="M18.9175 74L49.0021 74L43.8554 69.1948L20.6792 69.1948L5.22836 53.8181L5.22826 31.7142L2.71093e-05 25.948L2.83558e-05 55.1832L18.9175 74Z" fill="#6DCEFF"/>
<path d="M474.689 0H445L450.147 4.8052H473.323L488.774 20.1819L488.774 42.2858L493.602 48.052L494.002 18.8168L474.689 0Z" fill="#6DCEFF"/>
</svg>
