<svg width="293" height="74" viewBox="0 0 293 74" fill="none" xmlns="http://www.w3.org/2000/svg">
<path d="M52.1467 0.961182H19.3137L0.96582 19.221V54.7795L19.3137 73.0393H52.1467L56.9751 68.234H108.156L112.984 73.0393H193.135L197.964 68.234H244.316L249.145 73.0393H273.287L291.634 54.7795V19.221L273.287 0.961182H231.763L226.934 5.76639H56.9751L52.1467 0.961182Z" fill="#031A2A" fill-opacity="0.3" stroke="#6DCEFF" stroke-opacity="0.3"/>
<path d="M273.686 0H243.998L249.145 4.8052H272.321L287.772 20.1819L287.772 42.2858L292.6 48.052L293 18.8168L273.686 0Z" fill="#6DCEFF"/>
<path d="M18.9175 74L49.0021 74L43.8554 69.1948L20.6792 69.1948L5.22836 53.8181L5.22826 31.7142L2.71093e-05 25.948L2.83558e-05 55.1832L18.9175 74Z" fill="#6DCEFF"/>
</svg>
