<svg width="220" height="204" viewBox="0 0 220 204" fill="none" xmlns="http://www.w3.org/2000/svg">
<g filter="url(#filter0_f_257_4399)">
<path d="M89.3114 163.489L82.9711 172.547L89.3114 179.793H134.599L164.036 163.489L191.662 115.031C191.662 94.0478 187.858 64.037 172.641 111.861C157.424 159.685 110.748 166.207 89.3114 163.489Z" fill="url(#paint0_linear_257_4399)"/>
</g>
<path d="M162.678 104.615C167.056 108.842 176.536 118.564 179.434 123.636M149.997 108.691C157.092 115.333 172.007 129.705 174.906 134.052M138.675 113.22C147.129 121.372 164.942 139.034 168.565 144.469M127.353 117.749C136.109 127.259 154.526 148.182 158.149 155.791M115.126 123.636C116.031 124.542 140.034 149.903 144.11 165.754M103.804 128.618C104.256 129.976 124.183 158.508 127.353 172.547M91.5758 134.505C97.0104 144.921 108.061 167.384 108.785 173.906M78.8952 140.393C82.2163 146.884 88.4962 161.95 87.047 170.283M92.4816 172.547C101.086 168.32 124.998 160.138 151.809 161.225M85.2355 170.283C91.1229 163.791 132.788 153.526 159.961 154.885M80.7067 167.565C92.9344 160.621 126.9 147.186 164.942 148.997M75.725 165.754C90.3681 157.451 129.708 141.208 169.924 142.657M73.0078 163.49C91.7268 152.922 137.679 133.509 171.735 140.393M69.8376 162.131C91.4248 150.809 142.389 129.161 173.547 136.77M67.5732 161.225C91.1229 148.394 108.785 131.335 174.906 132.694M66.2146 159.414C87.047 145.676 138.313 120.647 176.717 130.429M64.8559 158.055C88.7076 142.204 144.11 113.763 176.717 128.618M63.0444 157.602C87.4999 139.638 145.016 108.057 179.434 125.448M61.6858 155.791C88.8585 136.921 150.088 103.528 179.434 120.919M117.39 122.278C132.184 116.541 165.576 107.604 180.793 117.749M132.788 115.937C142.298 111.861 165.214 105.883 180.793 114.579M144.11 110.503C152.413 107.936 171.554 104.615 181.699 111.861M157.243 106.427C162.074 104.766 173.728 102.894 181.699 108.691M60.3271 154.432C70.2905 147.941 91.3041 134.596 95.6517 133.147" stroke="#71AECF" stroke-width="0.452879"/>
<path d="M58.0627 151.714C90.972 133.901 161.772 98.9086 181.699 101.445" stroke="#71AECF" stroke-width="0.905758"/>
<path d="M94.9177 23.181C94.4479 20.7244 92.0714 19.1017 89.643 19.7007C70.2126 24.4934 53.0221 35.962 41.1283 52.1754C28.3393 69.6091 22.6221 91.2369 25.1252 112.713C27.6284 134.189 38.1666 153.922 54.6223 167.947C69.9262 180.991 89.2935 188.198 109.305 188.394C111.806 188.418 113.746 186.292 113.638 183.794L113.425 178.845C113.317 176.346 111.202 174.423 108.701 174.372C92.2287 174.041 76.3203 168.031 63.7106 157.284C49.9485 145.555 41.1353 129.052 39.0419 111.091C36.9485 93.1302 41.7299 75.0427 52.4254 60.4627C62.2254 47.1035 76.3252 37.5962 92.2799 33.4851C94.702 32.861 96.3178 30.5028 95.8481 28.0462L94.9177 23.181Z" fill="url(#paint1_linear_257_4399)"/>
<path d="M125.37 182.426C125.84 184.883 128.216 186.505 130.645 185.906C150.075 181.114 167.266 169.645 179.159 153.432C191.948 135.998 197.666 114.37 195.162 92.8939C192.659 71.4177 182.121 51.6845 165.665 37.6595C150.362 24.6161 130.994 17.4086 110.982 17.2132C108.481 17.1887 106.542 19.3144 106.65 21.8133L106.863 26.762C106.971 29.2608 109.086 31.1841 111.587 31.2345C128.059 31.566 143.967 37.5757 156.577 48.3228C170.339 60.0521 179.152 76.5552 181.246 94.5159C183.339 112.477 178.558 130.564 167.862 145.144C158.062 158.503 143.963 168.011 128.008 172.122C125.586 172.746 123.97 175.104 124.44 177.561L125.37 182.426Z" fill="url(#paint2_linear_257_4399)"/>
<path d="M59.4214 153.526L78.4423 141.298" stroke="white" stroke-width="0.452879"/>
<circle opacity="0.16" cx="110.144" cy="101.898" r="79.7067" stroke="white" stroke-width="0.905758"/>
<mask id="path-8-inside-1_257_4399" fill="white">
<path d="M164.114 188.329C178.837 179.136 190.968 166.333 199.356 151.135C207.744 135.938 212.11 118.85 212.041 101.491C211.972 84.1328 207.469 67.0799 198.96 51.9499C190.452 36.8198 178.219 24.1142 163.422 15.0382L162.899 15.8908C177.551 24.8777 189.663 37.4586 198.089 52.4402C206.514 67.4217 210.972 84.3072 211.041 101.495C211.109 118.683 206.786 135.604 198.48 150.652C190.175 165.7 178.163 178.377 163.584 187.481L164.114 188.329Z"/>
</mask>
<path d="M164.114 188.329C178.837 179.136 190.968 166.333 199.356 151.135C207.744 135.938 212.11 118.85 212.041 101.491C211.972 84.1328 207.469 67.0799 198.96 51.9499C190.452 36.8198 178.219 24.1142 163.422 15.0382L162.899 15.8908C177.551 24.8777 189.663 37.4586 198.089 52.4402C206.514 67.4217 210.972 84.3072 211.041 101.495C211.109 118.683 206.786 135.604 198.48 150.652C190.175 165.7 178.163 178.377 163.584 187.481L164.114 188.329Z" stroke="#293F4B" stroke-width="1.81152" mask="url(#path-8-inside-1_257_4399)"/>
<path d="M163.584 15.3977L166.754 11.3218" stroke="#293F4B" stroke-width="0.905758"/>
<path d="M171.425 21.3933L174.451 17.2092" stroke="#293F4B" stroke-width="0.905758"/>
<path d="M179.266 28.375L182.913 24.7202" stroke="#293F4B" stroke-width="0.905758"/>
<path d="M187.586 36.6524L191.234 32.9975" stroke="#293F4B" stroke-width="0.905758"/>
<path d="M194.48 45.2717L198.832 42.4929" stroke="#293F4B" stroke-width="0.905758"/>
<path d="M200.267 55.2653L204.936 53.0596" stroke="#293F4B" stroke-width="0.905758"/>
<path d="M204.796 65.75L209.782 64.4072" stroke="#293F4B" stroke-width="0.905758"/>
<path d="M208.408 76.5771L213.416 75.3189" stroke="#293F4B" stroke-width="0.905758"/>
<path d="M210.156 86.951L215.312 86.6832" stroke="#293F4B" stroke-width="0.905758"/>
<path d="M211.136 98.6761L216.293 98.4083" stroke="#293F4B" stroke-width="0.905758"/>
<path d="M211.136 109.152L216.287 109.511" stroke="#293F4B" stroke-width="0.905758"/>
<path d="M209.324 121.3L214.363 122.427" stroke="#293F4B" stroke-width="0.905758"/>
<path d="M206.668 131.944L211.585 133.521" stroke="#293F4B" stroke-width="0.905758"/>
<path d="M203.08 142.446L207.805 144.528" stroke="#293F4B" stroke-width="0.905758"/>
<path d="M198.606 151.963L203.03 154.627" stroke="#293F4B" stroke-width="0.905758"/>
<path d="M191.209 162.425L195.503 165.293" stroke="#293F4B" stroke-width="0.905758"/>
<path d="M185.14 170.236L188.891 173.784" stroke="#293F4B" stroke-width="0.905758"/>
<path d="M176.299 178.26L179.686 182.157" stroke="#293F4B" stroke-width="0.905758"/>
<path d="M167.365 185.68L170.753 189.577" stroke="#293F4B" stroke-width="0.905758"/>
<path d="M167.659 18.1152L172.641 10.8691" stroke="#293F4B" stroke-width="0.905758"/>
<path d="M175.811 24.4292L181.392 17.6339" stroke="#293F4B" stroke-width="0.905758"/>
<path d="M183.963 32.4912L190.157 26.2497" stroke="#293F4B" stroke-width="0.905758"/>
<path d="M190.792 40.1648L197.82 34.8791" stroke="#293F4B" stroke-width="0.905758"/>
<path d="M197.29 50.8659L204.836 46.3521" stroke="#293F4B" stroke-width="0.905758"/>
<path d="M202.984 60.4331L211.1 57.0479" stroke="#293F4B" stroke-width="0.905758"/>
<path d="M206.607 70.675L215.124 68.489" stroke="#293F4B" stroke-width="0.905758"/>
<path d="M209.324 81.5441L217.841 79.3581" stroke="#293F4B" stroke-width="0.905758"/>
<path d="M211.136 93.0102L219.927 92.8009" stroke="#293F4B" stroke-width="0.905758"/>
<path d="M211.136 103.879L219.927 103.67" stroke="#293F4B" stroke-width="0.905758"/>
<path d="M210.265 115.895L218.986 117.016" stroke="#293F4B" stroke-width="0.905758"/>
<path d="M208.5 126.952L217.059 128.967" stroke="#293F4B" stroke-width="0.905758"/>
<path d="M204.796 137.699L213.067 140.683" stroke="#293F4B" stroke-width="0.905758"/>
<path d="M201.172 147.046L209.153 150.738" stroke="#293F4B" stroke-width="0.905758"/>
<path d="M195.039 157.521L202.606 162" stroke="#293F4B" stroke-width="0.905758"/>
<path d="M188.672 166.659L195.733 171.9" stroke="#293F4B" stroke-width="0.905758"/>
<path d="M180.335 174.811L186.561 181.021" stroke="#293F4B" stroke-width="0.905758"/>
<path d="M172.431 181.827L178.161 188.497" stroke="#293F4B" stroke-width="0.905758"/>
<mask id="path-46-inside-2_257_4399" fill="white">
<path d="M56.8132 188.329C42.0894 179.136 29.9583 166.333 21.5706 151.135C13.1829 135.938 8.81662 118.85 8.88588 101.491C8.95515 84.1328 13.4577 67.0799 21.9664 51.9499C30.4751 36.8198 42.708 24.1142 57.5047 15.0382L58.0276 15.8908C43.3762 24.8777 31.2634 37.4586 22.8382 52.4402C14.413 67.4217 9.95467 84.3072 9.88608 101.495C9.81749 118.683 14.1409 135.604 22.4463 150.652C30.7517 165.7 42.7637 178.377 57.3429 187.481L56.8132 188.329Z"/>
</mask>
<path d="M56.8132 188.329C42.0894 179.136 29.9583 166.333 21.5706 151.135C13.1829 135.938 8.81662 118.85 8.88588 101.491C8.95515 84.1328 13.4577 67.0799 21.9664 51.9499C30.4751 36.8198 42.708 24.1142 57.5047 15.0382L58.0276 15.8908C43.3762 24.8777 31.2634 37.4586 22.8382 52.4402C14.413 67.4217 9.95467 84.3072 9.88608 101.495C9.81749 118.683 14.1409 135.604 22.4463 150.652C30.7517 165.7 42.7637 178.377 57.3429 187.481L56.8132 188.329Z" stroke="#293F4B" stroke-width="1.81152" mask="url(#path-46-inside-2_257_4399)"/>
<path d="M57.3431 15.3977L54.173 11.3218" stroke="#293F4B" stroke-width="0.905758"/>
<path d="M49.502 21.3933L46.4761 17.2092" stroke="#293F4B" stroke-width="0.905758"/>
<path d="M41.661 28.375L38.0134 24.7202" stroke="#293F4B" stroke-width="0.905758"/>
<path d="M33.3407 36.6524L29.6931 32.9975" stroke="#293F4B" stroke-width="0.905758"/>
<path d="M26.4468 45.2717L22.0947 42.4929" stroke="#293F4B" stroke-width="0.905758"/>
<path d="M20.6601 55.2653L15.9912 53.0596" stroke="#293F4B" stroke-width="0.905758"/>
<path d="M16.1312 65.75L11.1452 64.4072" stroke="#293F4B" stroke-width="0.905758"/>
<path d="M12.519 76.5771L7.51104 75.3189" stroke="#293F4B" stroke-width="0.905758"/>
<path d="M10.7711 86.951L5.61443 86.6832" stroke="#293F4B" stroke-width="0.905758"/>
<path d="M9.79087 98.6761L4.6342 98.4083" stroke="#293F4B" stroke-width="0.905758"/>
<path d="M9.79088 109.152L4.6398 109.511" stroke="#293F4B" stroke-width="0.905758"/>
<path d="M11.6024 121.3L6.56326 122.427" stroke="#293F4B" stroke-width="0.905758"/>
<path d="M14.2586 131.944L9.34154 133.521" stroke="#293F4B" stroke-width="0.905758"/>
<path d="M17.8467 142.446L13.1215 144.528" stroke="#293F4B" stroke-width="0.905758"/>
<path d="M22.3204 151.963L17.8972 154.627" stroke="#293F4B" stroke-width="0.905758"/>
<path d="M29.7175 162.425L25.4238 165.293" stroke="#293F4B" stroke-width="0.905758"/>
<path d="M35.7868 170.236L32.0353 173.784" stroke="#293F4B" stroke-width="0.905758"/>
<path d="M44.6282 178.26L41.2407 182.157" stroke="#293F4B" stroke-width="0.905758"/>
<path d="M53.5613 185.68L50.1738 189.577" stroke="#293F4B" stroke-width="0.905758"/>
<path d="M53.2673 18.1152L48.2857 10.8691" stroke="#293F4B" stroke-width="0.905758"/>
<path d="M45.1154 24.4292L39.5345 17.6339" stroke="#293F4B" stroke-width="0.905758"/>
<path d="M36.9637 32.4912L30.7697 26.2497" stroke="#293F4B" stroke-width="0.905758"/>
<path d="M30.1343 40.1648L23.1069 34.8791" stroke="#293F4B" stroke-width="0.905758"/>
<path d="M23.6369 50.8659L16.0905 46.3521" stroke="#293F4B" stroke-width="0.905758"/>
<path d="M17.9426 60.4331L9.827 57.0479" stroke="#293F4B" stroke-width="0.905758"/>
<path d="M14.3197 70.675L5.80245 68.489" stroke="#293F4B" stroke-width="0.905758"/>
<path d="M11.6024 81.5441L3.08517 79.3581" stroke="#293F4B" stroke-width="0.905758"/>
<path d="M9.79088 93.0102L1.00005 92.8009" stroke="#293F4B" stroke-width="0.905758"/>
<path d="M9.79088 103.879L1.00005 103.67" stroke="#293F4B" stroke-width="0.905758"/>
<path d="M10.6619 115.895L1.94035 117.016" stroke="#293F4B" stroke-width="0.905758"/>
<path d="M12.4269 126.952L3.86772 128.967" stroke="#293F4B" stroke-width="0.905758"/>
<path d="M16.1312 137.699L7.85964 140.683" stroke="#293F4B" stroke-width="0.905758"/>
<path d="M19.7543 147.046L11.7738 150.738" stroke="#293F4B" stroke-width="0.905758"/>
<path d="M25.8881 157.521L18.3206 162" stroke="#293F4B" stroke-width="0.905758"/>
<path d="M32.2545 166.659L25.1936 171.9" stroke="#293F4B" stroke-width="0.905758"/>
<path d="M40.5918 174.811L34.3657 181.021" stroke="#293F4B" stroke-width="0.905758"/>
<path d="M48.4957 181.827L42.7656 188.497" stroke="#293F4B" stroke-width="0.905758"/>
<defs>
<filter id="filter0_f_257_4399" x="76.359" y="79.6565" width="121.915" height="106.748" filterUnits="userSpaceOnUse" color-interpolation-filters="sRGB">
<feFlood flood-opacity="0" result="BackgroundImageFix"/>
<feBlend mode="normal" in="SourceGraphic" in2="BackgroundImageFix" result="shape"/>
<feGaussianBlur stdDeviation="3.30602" result="effect1_foregroundBlur_257_4399"/>
</filter>
<linearGradient id="paint0_linear_257_4399" x1="171.735" y1="179.34" x2="142.752" y2="134.014" gradientUnits="userSpaceOnUse">
<stop stop-color="#7CB8D9"/>
<stop offset="1" stop-color="#06486B" stop-opacity="0.3"/>
</linearGradient>
<linearGradient id="paint1_linear_257_4399" x1="92.9344" y1="181.152" x2="89.3114" y2="27.6257" gradientUnits="userSpaceOnUse">
<stop stop-color="#7CB8D9"/>
<stop offset="1" stop-color="#06486B" stop-opacity="0.3"/>
</linearGradient>
<linearGradient id="paint2_linear_257_4399" x1="159.961" y1="42.5704" x2="118.296" y2="232.327" gradientUnits="userSpaceOnUse">
<stop stop-color="#7CB8D9"/>
<stop offset="1" stop-color="#06486B" stop-opacity="0.3"/>
</linearGradient>
</defs>
</svg>
