<svg width="256" height="118" viewBox="0 0 256 118" fill="none" xmlns="http://www.w3.org/2000/svg">
<path d="M13.5743 31.8069L1 44.3812V100.965L13.5743 116.683H243.683L255 102.223V43.1238L243.683 31.8069H164.465V1H90.9059V31.8069H13.5743Z" fill="#0A0A0A" stroke="#1B1B1B" stroke-width="1.25743"/>
<g clip-path="url(#clip0_257_4228)">
<path d="M22.3762 40.6089L11.6881 51.297V95.3069L22.3762 105.995H234.881L243.683 97.193V49.4109L234.881 40.6089H163.208V71.4158H90.2772V40.6089H22.3762Z" fill="#141414" stroke="white" stroke-opacity="0.42" stroke-width="1.25743"/>
<path opacity="0.47" fill-rule="evenodd" clip-rule="evenodd" d="M99.5227 71.416C96.2825 72.9708 93.0921 74.7083 89.9595 76.5431C84.5443 79.7149 79.2831 83.189 74.2267 86.528L74.2265 86.5281L73.938 86.7186C68.7866 90.1201 63.8538 93.3692 59.1604 96.0287C51.8703 100.16 42.6739 98.8307 34.0061 95.3479C25.3618 91.8746 17.4045 86.3213 12.7287 82.2689L11.9052 83.2192C16.6601 87.3401 24.7349 92.9778 33.5373 96.5147C42.3163 100.042 51.9813 101.542 59.7803 97.1227C64.5177 94.4382 69.487 91.1644 74.6309 87.7679L74.9078 87.585L74.9081 87.5849C79.9725 84.2407 85.2093 80.7826 90.5951 77.6281C94.5038 75.3387 98.4811 73.2153 102.515 71.416H99.5227ZM148.167 71.416C150.399 72.4061 152.604 73.4865 154.757 74.6237C164.452 79.7449 172.996 85.9737 177.89 90.1387L177.902 90.1489L177.914 90.1586C183.872 94.7335 194.346 99.6672 206.465 99.6407C218.616 99.6141 232.362 94.5986 244.799 79.3694L243.825 78.5741C231.617 93.5231 218.223 98.3575 206.462 98.3833C194.677 98.4091 184.473 93.6047 178.692 89.1708C173.735 84.953 165.121 78.6764 155.344 73.5119C153.976 72.7894 152.584 72.0878 151.175 71.416H148.167Z" fill="url(#paint0_linear_257_4228)"/>
<g filter="url(#filter0_d_257_4228)">
<path class="wavy-line" d="M11.6881 65.7686C20.2805 66.3973 42.495 71.3012 62.6139 85.8874C87.7624 104.12 112.282 100.348 133.03 84.0012C153.777 67.6547 189.46 62.4379 210.361 70.7983C232.366 79.6002 239.073 89.8692 244.312 92.8032" stroke="url(#paint1_linear_257_4228)" stroke-width="5.0297"/>
</g>
<path d="M22.3762 40.6089L11.6881 51.297V95.3069L22.3762 105.995H234.881L243.683 97.193V49.4109L234.881 40.6089H163.208V71.4158H90.2772V40.6089H22.3762Z" stroke="white" stroke-opacity="0.42" stroke-width="1.25743"/>
</g>
<path opacity="0.77" d="M31.1782 41.2378V105.367" stroke="#F4BD91" stroke-opacity="0.21" stroke-width="1.25743"/>
<path opacity="0.77" d="M51.297 40.6089L51.297 105.995" stroke="#F4BD91" stroke-opacity="0.21" stroke-width="1.25743"/>
<path opacity="0.77" d="M71.4159 41.8662V105.995" stroke="#F4BD91" stroke-opacity="0.21" stroke-width="1.25743"/>
<path opacity="0.77" d="M96.5643 72.0444L96.5643 105.995" stroke="#F4BD91" stroke-opacity="0.21" stroke-width="1.25743"/>
<path opacity="0.77" d="M116.683 72.0444L116.683 105.995" stroke="#F4BD91" stroke-opacity="0.21" stroke-width="1.25743"/>
<path opacity="0.77" d="M139.317 72.0444L139.317 105.995" stroke="#F4BD91" stroke-opacity="0.21" stroke-width="1.25743"/>
<path opacity="0.77" d="M160.693 72.0444L160.693 105.995" stroke="#F4BD91" stroke-opacity="0.21" stroke-width="1.25743"/>
<path opacity="0.77" d="M180.812 40.6089L180.812 105.995" stroke="#F4BD91" stroke-opacity="0.21" stroke-width="1.25743"/>
<path opacity="0.77" d="M202.188 40.6089L202.188 105.995" stroke="#F4BD91" stroke-opacity="0.21" stroke-width="1.25743"/>
<path opacity="0.77" d="M223.564 40.6089L223.564 105.995" stroke="#F4BD91" stroke-opacity="0.21" stroke-width="1.25743"/>
<path d="M101.594 7.28711L97.8218 11.0594V61.9851L101.594 65.7574H153.777L157.55 61.9851V11.0594L153.777 7.28711H101.594Z" fill="#0A0C18" stroke="white" stroke-opacity="0.42" stroke-width="1.25743"/>
<path d="M103.48 40.6091C103.48 39.2202 104.606 38.0942 105.995 38.0942H111.025C112.414 38.0942 113.54 39.2202 113.54 40.6091V60.7279H103.48V40.6091Z" fill="#D9D9D9"/>
<path d="M103.48 40.6091C103.48 39.2202 104.606 38.0942 105.995 38.0942H111.025C112.414 38.0942 113.54 39.2202 113.54 40.6091V60.7279H103.48V40.6091Z" fill="url(#paint2_linear_257_4228)"/>
<path d="M116.054 28.0344C116.054 26.6455 117.18 25.5195 118.569 25.5195H123.599C124.988 25.5195 126.114 26.6455 126.114 28.0344V60.7275H116.054V28.0344Z" fill="#D9D9D9"/>
<path d="M116.054 28.0344C116.054 26.6455 117.18 25.5195 118.569 25.5195H123.599C124.988 25.5195 126.114 26.6455 126.114 28.0344V60.7275H116.054V28.0344Z" fill="url(#paint3_linear_257_4228)"/>
<path d="M116.054 28.0344C116.054 26.6455 117.18 25.5195 118.569 25.5195H123.599C124.988 25.5195 126.114 26.6455 126.114 28.0344V60.7275H116.054V28.0344Z" fill="url(#paint4_linear_257_4228)"/>
<path d="M128.629 45.6384C128.629 44.2495 129.755 43.1235 131.144 43.1235H136.173C137.562 43.1235 138.688 44.2495 138.688 45.6384V60.7275H128.629V45.6384Z" fill="#D9D9D9"/>
<path d="M128.629 45.6384C128.629 44.2495 129.755 43.1235 131.144 43.1235H136.173C137.562 43.1235 138.688 44.2495 138.688 45.6384V60.7275H128.629V45.6384Z" fill="url(#paint5_linear_257_4228)"/>
<path d="M128.629 45.6384C128.629 44.2495 129.755 43.1235 131.144 43.1235H136.173C137.562 43.1235 138.688 44.2495 138.688 45.6384V60.7275H128.629V45.6384Z" fill="url(#paint6_linear_257_4228)"/>
<path d="M141.203 33.0642C141.203 31.6753 142.329 30.5493 143.718 30.5493H148.748C150.136 30.5493 151.262 31.6753 151.262 33.0642V60.7275H141.203V33.0642Z" fill="#D9D9D9"/>
<path d="M141.203 33.0642C141.203 31.6753 142.329 30.5493 143.718 30.5493H148.748C150.136 30.5493 151.262 31.6753 151.262 33.0642V60.7275H141.203V33.0642Z" fill="url(#paint7_linear_257_4228)"/>
<path d="M141.203 33.0642C141.203 31.6753 142.329 30.5493 143.718 30.5493H148.748C150.136 30.5493 151.262 31.6753 151.262 33.0642V60.7275H141.203V33.0642Z" fill="url(#paint8_linear_257_4228)"/>
<defs>
<filter id="filter0_d_257_4228" x="0.0620632" y="51.8177" width="256.921" height="60.1376" filterUnits="userSpaceOnUse" color-interpolation-filters="sRGB">
<feFlood flood-opacity="0" result="BackgroundImageFix"/>
<feColorMatrix in="SourceAlpha" type="matrix" values="0 0 0 0 0 0 0 0 0 0 0 0 0 0 0 0 0 0 127 0" result="hardAlpha"/>
<feOffset/>
<feGaussianBlur stdDeviation="5.72129"/>
<feComposite in2="hardAlpha" operator="out"/>
<feColorMatrix type="matrix" values="0 0 0 0 0.285621 0 0 0 0 0.86818 0 0 0 0 0.382714 0 0 0 0.66 0"/>
<feBlend mode="normal" in2="BackgroundImageFix" result="effect1_dropShadow_257_4228"/>
<feBlend mode="normal" in="SourceGraphic" in2="effect1_dropShadow_257_4228" result="shape"/>
</filter>
<linearGradient id="paint0_linear_257_4228" x1="128.352" y1="71.416" x2="128.352" y2="99.8501" gradientUnits="userSpaceOnUse">
<stop stop-color="#4BFA5A"/>
<stop offset="1" stop-color="#32A21E"/>
</linearGradient>
<linearGradient id="paint1_linear_257_4228" x1="128" y1="65.7686" x2="128" y2="97.9977" gradientUnits="userSpaceOnUse">
<stop stop-color="#4BFA5A"/>
<stop offset="1" stop-color="#32A21E"/>
</linearGradient>
<linearGradient id="paint2_linear_257_4228" x1="108.51" y1="38.0942" x2="108.51" y2="60.7279" gradientUnits="userSpaceOnUse">
<stop stop-color="#4BFA5A"/>
<stop offset="1" stop-color="#32A21E"/>
</linearGradient>
<linearGradient id="paint3_linear_257_4228" x1="121.084" y1="25.5195" x2="121.084" y2="60.7275" gradientUnits="userSpaceOnUse">
<stop stop-color="#E9981E"/>
<stop offset="1" stop-color="#AB6907"/>
</linearGradient>
<linearGradient id="paint4_linear_257_4228" x1="121.084" y1="25.5195" x2="121.084" y2="60.7275" gradientUnits="userSpaceOnUse">
<stop stop-color="#4BFA5A"/>
<stop offset="1" stop-color="#32A21E"/>
</linearGradient>
<linearGradient id="paint5_linear_257_4228" x1="133.658" y1="43.1235" x2="133.658" y2="60.7275" gradientUnits="userSpaceOnUse">
<stop stop-color="#E9981E"/>
<stop offset="1" stop-color="#AB6907"/>
</linearGradient>
<linearGradient id="paint6_linear_257_4228" x1="133.658" y1="43.1235" x2="133.658" y2="60.7275" gradientUnits="userSpaceOnUse">
<stop stop-color="#4BFA5A"/>
<stop offset="1" stop-color="#32A21E"/>
</linearGradient>
<linearGradient id="paint7_linear_257_4228" x1="146.233" y1="30.5493" x2="146.233" y2="60.7275" gradientUnits="userSpaceOnUse">
<stop stop-color="#E9981E"/>
<stop offset="1" stop-color="#AB6907"/>
</linearGradient>
<linearGradient id="paint8_linear_257_4228" x1="146.233" y1="30.5493" x2="146.233" y2="60.7275" gradientUnits="userSpaceOnUse">
<stop stop-color="#4BFA5A"/>
<stop offset="1" stop-color="#32A21E"/>
</linearGradient>
<clipPath id="clip0_257_4228">
<rect width="231.995" height="65.3861" fill="white" transform="translate(11.6881 40.6089)"/>
</clipPath>
</defs>
</svg>
