<svg width="181" height="139" viewBox="0 0 181 139" fill="none" xmlns="http://www.w3.org/2000/svg">
<path d="M0.333333 136C0.333333 137.473 1.52724 138.667 3 138.667C4.47276 138.667 5.66667 137.473 5.66667 136C5.66667 134.527 4.47276 133.333 3 133.333C1.52724 133.333 0.333333 134.527 0.333333 136ZM22 3V2.5H21.5664L21.505 2.92929L22 3ZM175.333 3C175.333 4.47276 176.527 5.66667 178 5.66667C179.473 5.66667 180.667 4.47276 180.667 3C180.667 1.52724 179.473 0.333333 178 0.333333C176.527 0.333333 175.333 1.52724 175.333 3ZM3.49497 136.071L22.495 3.07071L21.505 2.92929L2.50503 135.929L3.49497 136.071ZM22 3.5H178V2.5H22V3.5Z" fill="#F0F3F7" fill-opacity="0.3"/>
</svg>
