<svg width="317" height="111" viewBox="0 0 317 111" fill="none" xmlns="http://www.w3.org/2000/svg">
<path d="M0.333333 3C0.333333 4.47276 1.52724 5.66667 3 5.66667C4.47276 5.66667 5.66667 4.47276 5.66667 3C5.66667 1.52724 4.47276 0.333333 3 0.333333C1.52724 0.333333 0.333333 1.52724 0.333333 3ZM94.4121 108L94.035 108.328L94.1845 108.5H94.4121V108ZM311.333 108C311.333 109.473 312.527 110.667 314 110.667C315.473 110.667 316.667 109.473 316.667 108C316.667 106.527 315.473 105.333 314 105.333C312.527 105.333 311.333 106.527 311.333 108ZM2.62289 3.32831L94.035 108.328L94.7893 107.672L3.37711 2.67169L2.62289 3.32831ZM94.4121 108.5H314V107.5H94.4121V108.5Z" fill="#F0F3F7" fill-opacity="0.3"/>
</svg>
