<svg width="264" height="79" viewBox="0 0 264 79" fill="none" xmlns="http://www.w3.org/2000/svg">
<path d="M257.833 75.5C257.833 76.9728 259.027 78.1667 260.5 78.1667C261.973 78.1667 263.167 76.9728 263.167 75.5C263.167 74.0272 261.973 72.8333 260.5 72.8333C259.027 72.8333 257.833 74.0272 257.833 75.5ZM180 3.5L180.333 3.12732L180.191 3H180V3.5ZM0.333333 3.5C0.333333 4.97276 1.52724 6.16667 3 6.16667C4.47276 6.16667 5.66667 4.97276 5.66667 3.5C5.66667 2.02724 4.47276 0.833333 3 0.833333C1.52724 0.833333 0.333333 2.02724 0.333333 3.5ZM260.833 75.1273L180.333 3.12732L179.667 3.87268L260.167 75.8727L260.833 75.1273ZM180 3H3V4H180V3Z" fill="#F0F3F7"/>
</svg>
