<svg width="188" height="108" viewBox="0 0 188 108" fill="none" xmlns="http://www.w3.org/2000/svg">
<path d="M181.833 105C181.833 106.473 183.027 107.667 184.5 107.667C185.973 107.667 187.167 106.473 187.167 105C187.167 103.527 185.973 102.333 184.5 102.333C183.027 102.333 181.833 103.527 181.833 105ZM166.5 3L166.992 2.91311L166.919 2.5H166.5V3ZM0.833333 3C0.833333 4.47276 2.02724 5.66667 3.5 5.66667C4.97276 5.66667 6.16667 4.47276 6.16667 3C6.16667 1.52724 4.97276 0.333333 3.5 0.333333C2.02724 0.333333 0.833333 1.52724 0.833333 3ZM184.992 104.913L166.992 2.91311L166.008 3.08689L184.008 105.087L184.992 104.913ZM166.5 2.5H3.5V3.5H166.5V2.5Z" fill="#F0F3F7"/>
</svg>
