<svg width="92" height="175" viewBox="0 0 92 175" fill="none" xmlns="http://www.w3.org/2000/svg">
<path d="M0.333333 172C0.333333 173.473 1.52724 174.667 3 174.667C4.47276 174.667 5.66667 173.473 5.66667 172C5.66667 170.527 4.47276 169.333 3 169.333C1.52724 169.333 0.333333 170.527 0.333333 172ZM3 76.5L2.77843 76.0518L2.5 76.1894V76.5H3ZM91 33L91.2216 33.4482L91.5 33.3106V33H91ZM3.5 172V76.5H2.5V172H3.5ZM3.22157 76.9482L91.2216 33.4482L90.7784 32.5518L2.77843 76.0518L3.22157 76.9482ZM91.5 33V0H90.5V33H91.5Z" fill="#F0F3F7"/>
</svg>
