<svg width="166" height="77" viewBox="0 0 166 77" fill="none" xmlns="http://www.w3.org/2000/svg">
<path d="M160.333 3C160.333 4.47276 161.527 5.66667 163 5.66667C164.473 5.66667 165.667 4.47276 165.667 3C165.667 1.52724 164.473 0.333333 163 0.333333C161.527 0.333333 160.333 1.52724 160.333 3ZM109.5 73.5V74H109.748L109.898 73.8023L109.5 73.5ZM0.333333 73.5C0.333333 74.9728 1.52724 76.1667 3 76.1667C4.47276 76.1667 5.66667 74.9728 5.66667 73.5C5.66667 72.0272 4.47276 70.8333 3 70.8333C1.52724 70.8333 0.333333 72.0272 0.333333 73.5ZM162.602 2.69774L109.102 73.1977L109.898 73.8023L163.398 3.30226L162.602 2.69774ZM109.5 73H3V74H109.5V73Z" fill="#F0F3F7"/>
</svg>
