<svg width="244" height="55" viewBox="0 0 244 55" fill="none" xmlns="http://www.w3.org/2000/svg">
<path d="M238.333 3C238.333 4.47276 239.527 5.66667 241 5.66667C242.473 5.66667 243.667 4.47276 243.667 3C243.667 1.52724 242.473 0.333333 241 0.333333C239.527 0.333333 238.333 1.52724 238.333 3ZM109 3V2.5H108.891L108.792 2.54533L109 3ZM0.333333 51.5C0.333333 52.9728 1.52724 54.1667 3 54.1667C4.47276 54.1667 5.66667 52.9728 5.66667 51.5C5.66667 50.0272 4.47276 48.8333 3 48.8333C1.52724 48.8333 0.333333 50.0272 0.333333 51.5ZM241 2.5H109V3.5H241V2.5ZM108.792 2.54533L2.79197 51.0453L3.20803 51.9547L109.208 3.45467L108.792 2.54533Z" fill="#F0F3F7"/>
</svg>
