<svg width="216" height="36" viewBox="0 0 216 36" fill="none" xmlns="http://www.w3.org/2000/svg">
<path d="M0.333333 3C0.333333 4.47276 1.52724 5.66667 3 5.66667C4.47276 5.66667 5.66667 4.47276 5.66667 3C5.66667 1.52724 4.47276 0.333333 3 0.333333C1.52724 0.333333 0.333333 1.52724 0.333333 3ZM30.4121 33L30.043 33.3373L30.1917 33.5H30.4121V33ZM209.833 33C209.833 34.4728 211.027 35.6667 212.5 35.6667C213.973 35.6667 215.167 34.4728 215.167 33C215.167 31.5272 213.973 30.3333 212.5 30.3333C211.027 30.3333 209.833 31.5272 209.833 33ZM2.63088 3.33727L30.043 33.3373L30.7813 32.6627L3.36912 2.66273L2.63088 3.33727ZM30.4121 33.5H212.5V32.5H30.4121V33.5Z" fill="#F0F3F7" fill-opacity="0.3"/>
</svg>
