<svg width="261" height="78" viewBox="0 0 261 78" fill="none" xmlns="http://www.w3.org/2000/svg">
<path d="M255.333 75C255.333 76.4728 256.527 77.6667 258 77.6667C259.473 77.6667 260.667 76.4728 260.667 75C260.667 73.5272 259.473 72.3333 258 72.3333C256.527 72.3333 255.333 73.5272 255.333 75ZM178.282 3L178.617 2.62894L178.474 2.5H178.282V3ZM0.333333 3C0.333333 4.47276 1.52724 5.66667 3 5.66667C4.47276 5.66667 5.66667 4.47276 5.66667 3C5.66667 1.52724 4.47276 0.333333 3 0.333333C1.52724 0.333333 0.333333 1.52724 0.333333 3ZM258.335 74.6289L178.617 2.62894L177.946 3.37106L257.665 75.3711L258.335 74.6289ZM178.282 2.5H3V3.5H178.282V2.5Z" fill="#F0F3F7" fill-opacity="0.3"/>
</svg>
