<svg width="153" height="79" viewBox="0 0 153 79" fill="none" xmlns="http://www.w3.org/2000/svg">
<path d="M146.833 76C146.833 77.4728 148.027 78.6667 149.5 78.6667C150.973 78.6667 152.167 77.4728 152.167 76C152.167 74.5272 150.973 73.3333 149.5 73.3333C148.027 73.3333 146.833 74.5272 146.833 76ZM137.782 3L138.275 2.92075L138.208 2.5H137.782V3ZM0.333333 3C0.333333 4.47276 1.52724 5.66667 3 5.66667C4.47276 5.66667 5.66667 4.47276 5.66667 3C5.66667 1.52724 4.47276 0.333333 3 0.333333C1.52724 0.333333 0.333333 1.52724 0.333333 3ZM149.994 75.9208L138.275 2.92075L137.288 3.07925L149.006 76.0792L149.994 75.9208ZM137.782 2.5H3L3 3.5H137.782V2.5Z" fill="#F0F3F7" fill-opacity="0.3"/>
</svg>
