<svg width="325" height="175" viewBox="0 0 325 175" fill="none" xmlns="http://www.w3.org/2000/svg">
<path d="M0.833333 171.5C0.833333 172.973 2.02724 174.167 3.5 174.167C4.97276 174.167 6.16667 172.973 6.16667 171.5C6.16667 170.027 4.97276 168.833 3.5 168.833C2.02724 168.833 0.833333 170.027 0.833333 171.5ZM110.5 3V2.5H110.225L110.078 2.73197L110.5 3ZM319.333 3C319.333 4.47276 320.527 5.66667 322 5.66667C323.473 5.66667 324.667 4.47276 324.667 3C324.667 1.52724 323.473 0.333333 322 0.333333C320.527 0.333333 319.333 1.52724 319.333 3ZM3.92209 171.768L110.922 3.26803L110.078 2.73197L3.07791 171.232L3.92209 171.768ZM110.5 3.5H322V2.5H110.5V3.5Z" fill="#F0F3F7" fill-opacity="0.3"/>
</svg>
