<svg width="68" height="67" viewBox="0 0 68 67" fill="none" xmlns="http://www.w3.org/2000/svg">
<path d="M51.0652 9.05788C60.418 19.5832 59.4642 35.6946 48.9348 45.0438C38.4054 54.3929 22.2876 53.4395 12.9348 42.9142C3.58196 32.3889 4.53578 16.2775 15.0652 6.92829C25.5946 -2.42087 41.7124 -1.46742 51.0652 9.05788Z" fill="#0A0C18"/>
<path d="M51.0652 9.05788C60.418 19.5832 59.4642 35.6946 48.9348 45.0438C38.4054 54.3929 22.2876 53.4395 12.9348 42.9142C3.58196 32.3889 4.53578 16.2775 15.0652 6.92829C25.5946 -2.42087 41.7124 -1.46742 51.0652 9.05788Z" fill="url(#paint0_linear_252_1240)"/>
<path d="M66.383 59.1171H64.3624V56.3825H57.2592V59.1171H55.2386V53.5471C55.2386 52.734 55.3785 51.9856 55.6583 51.302C55.9381 50.6183 56.3267 50.0305 56.824 49.5385C57.3214 49.0465 57.9095 48.6633 58.5882 48.3888C59.2669 48.1143 60.0078 47.9771 60.8108 47.9771H65.365C65.5048 47.9771 65.637 48.0029 65.7613 48.0547C65.8856 48.1065 65.9944 48.179 66.0877 48.2723C66.181 48.3655 66.2535 48.4742 66.3053 48.5985C66.3571 48.7228 66.383 48.8549 66.383 48.9947V59.1171ZM57.2592 54.3627H64.3624V49.9969H60.8108C60.7487 49.9969 60.6165 50.0072 60.4145 50.0279C60.2176 50.0435 59.9871 50.0875 59.7228 50.16C59.4638 50.2325 59.1892 50.3438 58.899 50.494C58.6089 50.6442 58.3421 50.8514 58.0986 51.1155C57.8551 51.3796 57.653 51.7111 57.4924 52.1099C57.337 52.5035 57.2592 52.9825 57.2592 53.5471V54.3627Z" fill="#F0F3F7"/>
<path d="M53.7698 55.8388C53.7698 56.2375 53.718 56.5975 53.6143 56.9186C53.5159 57.2345 53.3838 57.5142 53.218 57.7576C53.0522 58.001 52.8579 58.2081 52.6351 58.379C52.4124 58.55 52.1818 58.6898 51.9435 58.7985C51.7051 58.9073 51.4616 58.9876 51.2129 59.0394C50.9694 59.0912 50.7389 59.1171 50.5213 59.1171H42.7264V57.0972H50.5213C50.9099 57.0972 51.2104 56.9833 51.4228 56.7554C51.6404 56.5276 51.7492 56.222 51.7492 55.8388C51.7492 55.6523 51.7207 55.4814 51.6637 55.326C51.6067 55.1707 51.5238 55.036 51.415 54.9221C51.3114 54.8081 51.1819 54.7201 51.0264 54.6579C50.8762 54.5958 50.7078 54.5647 50.5213 54.5647H45.8739C45.5475 54.5647 45.1952 54.5078 44.817 54.3938C44.4388 54.2747 44.0865 54.0857 43.7601 53.8267C43.4388 53.5678 43.1694 53.2285 42.9518 52.809C42.7394 52.3895 42.6332 51.8768 42.6332 51.2709C42.6332 50.6649 42.7394 50.1548 42.9518 49.7405C43.1694 49.321 43.4388 48.9818 43.7601 48.7228C44.0865 48.4587 44.4388 48.2697 44.817 48.1557C45.1952 48.0366 45.5475 47.9771 45.8739 47.9771H52.7517V49.9969H45.8739C45.4905 49.9969 45.19 50.1134 44.9724 50.3464C44.76 50.5795 44.6538 50.8876 44.6538 51.2709C44.6538 51.6593 44.76 51.9675 44.9724 52.1953C45.19 52.418 45.4905 52.5294 45.8739 52.5294H50.5213H50.5368C50.7544 52.5346 50.985 52.5656 51.2285 52.6226C51.472 52.6744 51.7129 52.7573 51.9512 52.8712C52.1948 52.9851 52.4253 53.1301 52.6429 53.3062C52.8605 53.4771 53.0522 53.6843 53.218 53.9277C53.389 54.1711 53.5237 54.4508 53.6221 54.7667C53.7206 55.0826 53.7698 55.44 53.7698 55.8388Z" fill="#F0F3F7"/>
<path d="M41.0322 51.7215C41.0322 52.1824 40.9752 52.5941 40.8613 52.9566C40.7473 53.3192 40.5918 53.6403 40.395 53.9199C40.2033 54.1944 39.9805 54.4301 39.7266 54.6269C39.4727 54.8237 39.2059 54.9868 38.9261 55.1163C38.6516 55.2406 38.3718 55.3312 38.0868 55.3882C37.807 55.4452 37.5428 55.4736 37.2941 55.4736L41.5141 59.1171H38.3899L34.1777 55.4736H32.7245V53.4538H37.2941C37.548 53.4331 37.7786 53.3813 37.9858 53.2985C38.1982 53.2104 38.3796 53.0939 38.5298 52.9489C38.6852 52.8039 38.8044 52.6304 38.8873 52.4284C38.9702 52.2212 39.0116 51.9856 39.0116 51.7215V50.4474C39.0116 50.3335 38.9961 50.248 38.965 50.1911C38.9391 50.1289 38.9028 50.0849 38.8562 50.059C38.8148 50.0279 38.7681 50.0098 38.7163 50.0046C38.6697 49.9994 38.6257 49.9969 38.5842 49.9969H31.9162V59.1171H29.8956V48.9947C29.8956 48.8549 29.9215 48.7228 29.9733 48.5985C30.0252 48.4742 30.0951 48.3655 30.1832 48.2723C30.2764 48.179 30.3852 48.1065 30.5096 48.0547C30.6339 48.0029 30.7686 47.9771 30.9137 47.9771H38.5842C39.035 47.9771 39.4158 48.0599 39.7266 48.2256C40.0375 48.3862 40.2888 48.5908 40.4805 48.8394C40.6773 49.0828 40.8172 49.3469 40.9001 49.6317C40.9882 49.9166 41.0322 50.1833 41.0322 50.4319V51.7215Z" fill="#F0F3F7"/>
<path d="M27.5409 59.1171H25.5203V56.3825H18.4171V59.1171H16.3965V53.5471C16.3965 52.734 16.5364 51.9856 16.8161 51.302C17.0959 50.6183 17.4845 50.0305 17.9819 49.5385C18.4793 49.0465 19.0673 48.6633 19.746 48.3888C20.4247 48.1143 21.1656 47.9771 21.9687 47.9771H26.5228C26.6627 47.9771 26.7948 48.0029 26.9191 48.0547C27.0435 48.1065 27.1523 48.179 27.2455 48.2723C27.3388 48.3655 27.4113 48.4742 27.4631 48.5985C27.515 48.7228 27.5409 48.8549 27.5409 48.9947V59.1171ZM18.4171 54.3627H25.5203V49.9969H21.9687C21.9065 49.9969 21.7744 50.0072 21.5723 50.0279C21.3754 50.0435 21.1449 50.0875 20.8807 50.16C20.6216 50.2325 20.347 50.3438 20.0569 50.494C19.7667 50.6442 19.4999 50.8514 19.2564 51.1155C19.0129 51.3796 18.8108 51.7111 18.6502 52.1099C18.4948 52.5035 18.4171 52.9825 18.4171 53.5471V54.3627Z" fill="#F0F3F7"/>
<path d="M14.2516 59.117H12.2154V52.4827L8.63275 58.7829C8.54467 58.9435 8.42033 59.0652 8.25972 59.1481C8.10429 59.2309 7.9359 59.2724 7.75457 59.2724C7.57841 59.2724 7.41262 59.2309 7.25719 59.1481C7.10694 59.0652 6.98778 58.9435 6.8997 58.7829L3.30148 52.4827V59.117H1.28088V48.8393C1.28088 48.6062 1.34824 48.3991 1.48294 48.2178C1.62283 48.0365 1.80417 47.9148 2.02695 47.8527C2.13575 47.8268 2.24455 47.819 2.35335 47.8294C2.46216 47.8346 2.56578 47.8579 2.66422 47.8993C2.76784 47.9355 2.86109 47.9899 2.94399 48.0624C3.02689 48.1298 3.09683 48.2126 3.15382 48.311L7.75457 56.3048L12.3553 48.311C12.4745 48.1142 12.6377 47.9744 12.8449 47.8915C13.0573 47.8087 13.2775 47.7957 13.5055 47.8527C13.7231 47.9148 13.9018 48.0365 14.0417 48.2178C14.1816 48.3991 14.2516 48.6062 14.2516 48.8393V59.117Z" fill="#F0F3F7"/>
<path d="M35.9157 64.7847V66.8732H35.239V62.6454H35.8227L35.9073 63.4571C36.2202 62.8737 36.7532 62.5186 37.396 62.5186C38.1489 62.5186 38.7325 63.0005 38.9948 63.77C39.2739 63.009 39.883 62.5186 40.6273 62.5186C41.6593 62.5186 42.3868 63.4571 42.3868 64.7847V66.8732H41.7101V64.7847C41.7101 63.8038 41.1856 63.1527 40.4243 63.1527C39.6799 63.1527 39.1555 63.8123 39.1555 64.7847V66.8732H38.4788V64.7847C38.4788 63.8038 37.9712 63.1527 37.193 63.1527C36.4317 63.1527 35.9157 63.8123 35.9157 64.7847Z" fill="#F0F3F7" fill-opacity="0.3"/>
<path d="M33.9469 66.8732H33.3632L33.2786 66.0023C32.9403 66.628 32.3312 67 31.6122 67C30.4533 67 29.5736 66.0445 29.5736 64.7677C29.5736 63.474 30.4533 62.5186 31.6122 62.5186C32.3312 62.5186 32.9318 62.8906 33.2701 63.5163L33.3632 62.6454H33.9469V66.8732ZM30.2503 64.7593C30.2503 65.6979 30.9017 66.3828 31.7898 66.3828C32.6611 66.3828 33.2701 65.7232 33.2701 64.7593C33.2701 63.8038 32.6611 63.1274 31.7898 63.1274C30.8847 63.1274 30.2503 63.8038 30.2503 64.7593Z" fill="#F0F3F7" fill-opacity="0.3"/>
<path d="M28.8496 64.9538H25.1869C25.263 65.8247 25.8636 66.4589 26.6672 66.4589C27.2593 66.4589 27.7415 66.1545 28.0206 65.6725H28.7142C28.3674 66.4927 27.6146 67 26.6672 67C25.4237 67 24.5017 66.0445 24.5017 64.7677C24.5017 63.474 25.4068 62.5186 26.6672 62.5186C27.9529 62.5186 28.858 63.4318 28.858 64.7677C28.858 64.8269 28.8496 64.8861 28.8496 64.9538ZM25.1869 64.5648H28.1729C28.0967 63.677 27.5046 63.0766 26.6672 63.0766C25.8636 63.0766 25.263 63.6939 25.1869 64.5648Z" fill="#F0F3F7" fill-opacity="0.3"/>
<path d="M22.4976 63.2797V64.8947C22.4976 65.9263 22.8952 66.3575 23.7834 66.3575V67.0001C22.3961 67.0001 21.8209 66.2899 21.8209 64.8947V63.2797H20.9327V62.9922L22.2185 61.6985H22.4976V62.6455H23.7834V63.2797H22.4976Z" fill="#F0F3F7" fill-opacity="0.3"/>
<defs>
<linearGradient id="paint0_linear_252_1240" x1="49.9259" y1="-0.60581" x2="20.563" y2="50.0746" gradientUnits="userSpaceOnUse">
<stop stop-color="#6DCEFF"/>
<stop offset="0.355" stop-color="#4322D4" stop-opacity="0"/>
<stop offset="1" stop-color="#161318"/>
</linearGradient>
</defs>
</svg>
