<svg width="256" height="118" viewBox="0 0 256 118" fill="none" xmlns="http://www.w3.org/2000/svg">
<path d="M13.5743 31.8069L1 44.3812V100.965L13.5743 116.683H243.683L255 102.223V43.1238L243.683 31.8069H164.465V1H90.9059V31.8069H13.5743Z" fill="#0A0A0A" stroke="#1B1B1B" stroke-width="1.25743"/>
<g clip-path="url(#clip0_257_4121)">
<path d="M22.3762 40.6089L11.6881 51.297V95.3069L22.3762 105.995H234.881L243.683 97.193V49.4109L234.881 40.6089H163.208V71.4158H90.2772V40.6089H22.3762Z" fill="#141414" stroke="white" stroke-opacity="0.42" stroke-width="1.25743"/>
<path opacity="0.47" fill-rule="evenodd" clip-rule="evenodd" d="M99.5225 71.4155C96.2824 72.9703 93.0921 74.7078 89.9595 76.5426C84.5443 79.7144 79.2831 83.1885 74.2267 86.5274L74.2265 86.5276L73.938 86.7181C68.7866 90.1195 63.8538 93.3686 59.1604 96.0282C51.8703 100.159 42.6739 98.8301 34.0061 95.3474C25.3618 91.8741 17.4045 86.3207 12.7287 82.2684L11.9052 83.2186C16.6601 87.3395 24.7349 92.9773 33.5373 96.5141C42.3163 100.042 51.9813 101.542 59.7803 97.1222C64.5177 94.4377 69.487 91.1639 74.6309 87.7674L74.9078 87.5845L74.9081 87.5843C79.9724 84.2402 85.2093 80.7821 90.5951 77.6276C94.5037 75.3382 98.481 73.2148 102.514 71.4155H99.5225ZM148.167 71.4155C150.399 72.4056 152.604 73.486 154.757 74.6232C164.452 79.7444 172.996 85.9731 177.89 90.1381L177.902 90.1484L177.914 90.158C183.872 94.7329 194.346 99.6667 206.465 99.6401C218.616 99.6135 232.362 94.5981 244.799 79.3689L243.825 78.5735C231.617 93.5225 218.223 98.3569 206.462 98.3827C194.677 98.4085 184.473 93.6042 178.692 89.1703C173.735 84.9525 165.121 78.6759 155.344 73.5113C153.976 72.7889 152.584 72.0872 151.175 71.4155H148.167Z" fill="url(#paint0_linear_257_4121)"/>
<g filter="url(#filter0_d_257_4121)">
<path d="M11.6881 65.7686C20.2805 66.3973 42.495 71.3012 62.6139 85.8874C87.7624 104.12 112.282 100.348 133.03 84.0012C153.777 67.6547 189.46 62.4379 210.361 70.7983C232.366 79.6002 239.073 89.8692 244.312 92.8032" stroke="url(#paint1_linear_257_4121)" stroke-width="5.0297"/>
</g>
<path d="M22.3762 40.6089L11.6881 51.297V95.3069L22.3762 105.995H234.881L243.683 97.193V49.4109L234.881 40.6089H163.208V71.4158H90.2772V40.6089H22.3762Z" stroke="white" stroke-opacity="0.42" stroke-width="1.25743"/>
</g>
<path opacity="0.77" d="M31.1782 41.2378V105.367" stroke="#F4BD91" stroke-opacity="0.21" stroke-width="1.25743"/>
<path opacity="0.77" d="M51.297 40.6089L51.297 105.995" stroke="#F4BD91" stroke-opacity="0.21" stroke-width="1.25743"/>
<path opacity="0.77" d="M71.4159 41.8662V105.995" stroke="#F4BD91" stroke-opacity="0.21" stroke-width="1.25743"/>
<path opacity="0.77" d="M96.5643 72.0444L96.5643 105.995" stroke="#F4BD91" stroke-opacity="0.21" stroke-width="1.25743"/>
<path opacity="0.77" d="M116.683 72.0444L116.683 105.995" stroke="#F4BD91" stroke-opacity="0.21" stroke-width="1.25743"/>
<path opacity="0.77" d="M139.317 72.0444L139.317 105.995" stroke="#F4BD91" stroke-opacity="0.21" stroke-width="1.25743"/>
<path opacity="0.77" d="M160.693 72.0444L160.693 105.995" stroke="#F4BD91" stroke-opacity="0.21" stroke-width="1.25743"/>
<path opacity="0.77" d="M180.812 40.6089L180.812 105.995" stroke="#F4BD91" stroke-opacity="0.21" stroke-width="1.25743"/>
<path opacity="0.77" d="M202.188 40.6089L202.188 105.995" stroke="#F4BD91" stroke-opacity="0.21" stroke-width="1.25743"/>
<path opacity="0.77" d="M223.564 40.6089L223.564 105.995" stroke="#F4BD91" stroke-opacity="0.21" stroke-width="1.25743"/>
<path d="M101.594 7.28711L97.8218 11.0594V61.9851L101.594 65.7574H153.777L157.55 61.9851V11.0594L153.777 7.28711H101.594Z" fill="#0A0C18" stroke="white" stroke-opacity="0.42" stroke-width="1.25743"/>
<path d="M127.184 28.6406V41.6789" stroke="white" stroke-width="4.01179"/>
<path d="M127.184 28.6406V41.6789" stroke="url(#paint2_linear_257_4121)" stroke-width="4.01179"/>
<path d="M127.184 43.6851L127.184 47.6968" stroke="white" stroke-width="4.01179"/>
<path d="M127.184 43.6851L127.184 47.6968" stroke="url(#paint3_linear_257_4121)" stroke-width="4.01179"/>
<path d="M120.665 21.1187L106.624 52.21H148.748L133.202 21.1187H120.665Z" stroke="white" stroke-width="4.01179"/>
<path d="M120.665 21.1187L106.624 52.21H148.748L133.202 21.1187H120.665Z" stroke="url(#paint4_linear_257_4121)" stroke-width="4.01179"/>
<defs>
<filter id="filter0_d_257_4121" x="0.0620632" y="51.8177" width="256.921" height="60.1376" filterUnits="userSpaceOnUse" color-interpolation-filters="sRGB">
<feFlood flood-opacity="0" result="BackgroundImageFix"/>
<feColorMatrix in="SourceAlpha" type="matrix" values="0 0 0 0 0 0 0 0 0 0 0 0 0 0 0 0 0 0 127 0" result="hardAlpha"/>
<feOffset/>
<feGaussianBlur stdDeviation="5.72129"/>
<feComposite in2="hardAlpha" operator="out"/>
<feColorMatrix type="matrix" values="0 0 0 0 0.86818 0 0 0 0 0.285621 0 0 0 0 0.285621 0 0 0 0.66 0"/>
<feBlend mode="normal" in2="BackgroundImageFix" result="effect1_dropShadow_257_4121"/>
<feBlend mode="normal" in="SourceGraphic" in2="effect1_dropShadow_257_4121" result="shape"/>
</filter>
<linearGradient id="paint0_linear_257_4121" x1="128.352" y1="71.4155" x2="128.352" y2="99.8496" gradientUnits="userSpaceOnUse">
<stop stop-color="#FA4B4B"/>
<stop offset="1" stop-color="#9C1D1D"/>
</linearGradient>
<linearGradient id="paint1_linear_257_4121" x1="128" y1="65.7686" x2="128" y2="97.9977" gradientUnits="userSpaceOnUse">
<stop stop-color="#FA4B4B"/>
<stop offset="1" stop-color="#9C1D1D"/>
</linearGradient>
<linearGradient id="paint2_linear_257_4121" x1="127.684" y1="28.6406" x2="127.684" y2="41.6789" gradientUnits="userSpaceOnUse">
<stop stop-color="#FA4B4B"/>
<stop offset="1" stop-color="#9C1D1D"/>
</linearGradient>
<linearGradient id="paint3_linear_257_4121" x1="127.684" y1="43.6851" x2="127.684" y2="47.6968" gradientUnits="userSpaceOnUse">
<stop stop-color="#FA4B4B"/>
<stop offset="1" stop-color="#9C1D1D"/>
</linearGradient>
<linearGradient id="paint4_linear_257_4121" x1="127.686" y1="21.1187" x2="127.686" y2="52.21" gradientUnits="userSpaceOnUse">
<stop stop-color="#FA4B4B"/>
<stop offset="1" stop-color="#9C1D1D"/>
</linearGradient>
<clipPath id="clip0_257_4121">
<rect width="231.995" height="65.3861" fill="white" transform="translate(11.6881 40.6089)"/>
</clipPath>
</defs>
</svg>
