<svg width="1198" height="1056" viewBox="0 0 1198 1056" fill="none" xmlns="http://www.w3.org/2000/svg">
<g clip-path="url(#clip0_256_1989)">
<path fill-rule="evenodd" clip-rule="evenodd" d="M1198.5 1H1199.5V0H4V1H170.643V175.714H4V176.714H170.643V351.429H4V352.429H170.643V527.143H4V528.143H170.643V702.857H4V703.857H170.643V878.571H4V879.571H170.643V1054.29H4V1055.29H170.643V1229.5H4V1230.5H1199.5V1229.5H1198.5V1055.29H1199.5V1054.29H1198.5V879.571H1199.5V878.571H1198.5V703.857H1199.5V702.857H1198.5V528.143H1199.5V527.143H1198.5V352.429H1199.5V351.429H1198.5V176.714H1199.5V175.714H1198.5V1ZM1197.5 1229.5V1055.29H1027.36V1229.5H1197.5ZM1026.36 1229.5V1055.29H856.214V1229.5H1026.36ZM855.214 1229.5V1055.29H685.071V1229.5H855.214ZM684.071 1229.5V1055.29H513.929V1229.5H684.071ZM512.929 1229.5V1055.29H342.786V1229.5H512.929ZM341.786 1229.5V1055.29H171.643V1229.5H341.786ZM1197.5 1054.29V879.571H1027.36V1054.29H1197.5ZM1026.36 1054.29V879.571H856.214V1054.29H1026.36ZM855.214 1054.29V879.571H685.071V1054.29H855.214ZM684.071 1054.29V879.571H513.929V1054.29H684.071ZM512.929 1054.29V879.571H342.786V1054.29H512.929ZM341.786 1054.29V879.571H171.643V1054.29H341.786ZM341.786 878.571H171.643V703.857H341.786V878.571ZM512.929 878.571H342.786V703.857H512.929V878.571ZM684.071 878.571H513.929V703.857H684.071V878.571ZM855.214 878.571H685.071V703.857H855.214V878.571ZM1026.36 878.571H856.214V703.857H1026.36V878.571ZM1197.5 878.571H1027.36V703.857H1197.5V878.571ZM1197.5 702.857V528.143H1027.36V702.857H1197.5ZM1026.36 702.857V528.143H856.214V702.857H1026.36ZM855.214 702.857V528.143H685.071V702.857H855.214ZM684.071 702.857V528.143H513.929V702.857H684.071ZM512.929 702.857V528.143H342.786V702.857H512.929ZM341.786 702.857V528.143H171.643V702.857H341.786ZM341.786 527.143H171.643V352.429H341.786V527.143ZM512.929 527.143H342.786V352.429H512.929V527.143ZM684.071 527.143H513.929V352.429H684.071V527.143ZM855.214 527.143H685.071V352.429H855.214V527.143ZM1026.36 527.143H856.214V352.429H1026.36V527.143ZM1197.5 527.143H1027.36V352.429H1197.5V527.143ZM1197.5 351.429V176.714H1027.36V351.429H1197.5ZM1026.36 351.429V176.714H856.214V351.429H1026.36ZM855.214 351.429V176.714H685.071V351.429H855.214ZM684.071 351.429V176.714H513.929V351.429H684.071ZM512.929 351.429V176.714H342.786V351.429H512.929ZM341.786 351.429V176.714H171.643V351.429H341.786ZM341.786 175.714H171.643V1H341.786V175.714ZM512.929 175.714H342.786V1H512.929V175.714ZM684.071 175.714H513.929V1H684.071V175.714ZM855.214 175.714H685.071V1H855.214V175.714ZM1026.36 175.714H856.214V1H1026.36V175.714ZM1197.5 175.714H1027.36V1H1197.5V175.714ZM-0.5 1230V0.5H0.5V1230H-0.5Z" fill="#F0F3F7" fill-opacity="0.04"/>
</g>
<defs>
<clipPath id="clip0_256_1989">
<rect width="1200" height="1056" fill="white"/>
</clipPath>
</defs>
</svg>
