<svg width="239" height="151" viewBox="0 0 239 151" fill="none" xmlns="http://www.w3.org/2000/svg">
<g filter="url(#filter0_b_348_201)">
<path d="M42.8222 0.782043H16.1082L1.17981 15.6388V135.665L16.1082 150.522H42.8222L46.7507 146.612H88.393L92.3216 150.522H157.535L161.464 146.612H199.177L203.106 150.522H222.749L237.677 135.665V15.6388L222.749 0.782043H188.963L185.035 4.69171H46.7507L42.8222 0.782043Z" fill="#031A2A" fill-opacity="0.3"/>
<path d="M42.8222 0.782043H16.1082L1.17981 15.6388V135.665L16.1082 150.522H42.8222L46.7507 146.612H88.393L92.3216 150.522H157.535L161.464 146.612H199.177L203.106 150.522H222.749L237.677 135.665V15.6388L222.749 0.782043H188.963L185.035 4.69171H46.7507L42.8222 0.782043Z" stroke="#6DCEFF" stroke-opacity="0.3" stroke-width="0.813632"/>
</g>
<path d="M223.074 0H198.918L203.106 3.90967H221.963L234.534 16.4206L234.534 34.4051L238.463 39.0967L238.788 15.31L223.074 0Z" fill="#6DCEFF"/>
<path d="M15.7859 150.564L40.2637 150.564L36.0762 146.655L17.2193 146.655L4.648 134.144L4.64792 116.159L0.394065 111.468L0.394063 135.254L15.7859 150.564Z" fill="#6DCEFF"/>
<path d="M27.7158 126.908H26.5605V116.445H21.581V115.306H32.5488L32.4512 116.445H27.7158V126.908ZM44.3381 126.908H34.7209V115.306H44.4357L44.3381 116.445H35.8926V120.546H43.4593L43.3942 121.685H35.8926V125.786H44.4357L44.3381 126.908ZM58.2617 126.908L56.8785 124.223H49.3443L47.9774 126.908H46.6756L52.6314 115.306H53.6077L59.5635 126.908H58.2617ZM53.1196 116.836L49.865 123.198H56.3578L53.1196 116.836ZM74.6357 126.908H73.4966V117.6L68.7938 124.581H67.8012L63.0984 117.6V126.908H61.9267V115.306H62.9519L68.2893 123.296L73.643 115.306H74.6357V126.908ZM91.4102 125.786L91.3126 126.908H81.6954V115.306H82.8671V125.786H91.4102ZM103.755 126.908H94.1383V115.306H103.853L103.755 116.445H95.3099V120.546H102.877L102.812 121.685H95.3099V125.786H103.853L103.755 126.908ZM117.679 126.908L116.296 124.223H108.762L107.395 126.908H106.093L112.049 115.306H113.025L118.981 126.908H117.679ZM112.537 116.836L109.282 123.198H115.775L112.537 116.836ZM121.36 126.908H121.344V115.306H121.36C123.053 115.176 124.957 115.078 126.226 115.078C129.464 115.078 132.605 115.713 132.605 121.099C132.605 126.42 129.464 127.071 126.21 127.071C124.957 127.071 123.053 127.006 121.36 126.908ZM126.145 116.201C125.25 116.201 123.85 116.25 122.516 116.347V125.851C123.866 125.932 125.266 125.948 126.047 125.948C128.878 125.948 131.449 125.558 131.449 121.099C131.449 116.592 128.878 116.201 126.145 116.201Z" fill="#6DCEFF"/>
<defs>
<filter id="filter0_b_348_201" x="-44.1395" y="-44.5372" width="327.136" height="240.378" filterUnits="userSpaceOnUse" color-interpolation-filters="sRGB">
<feFlood flood-opacity="0" result="BackgroundImageFix"/>
<feGaussianBlur in="BackgroundImageFix" stdDeviation="22.4562"/>
<feComposite in2="SourceAlpha" operator="in" result="effect1_backgroundBlur_348_201"/>
<feBlend mode="normal" in="SourceGraphic" in2="effect1_backgroundBlur_348_201" result="shape"/>
</filter>
</defs>
</svg>
