<svg width="239" height="151" viewBox="0 0 239 151" fill="none" xmlns="http://www.w3.org/2000/svg">
<g filter="url(#filter0_b_348_177)">
<path d="M42.4281 0.782043H15.7142L0.785767 15.6388V135.665L15.7142 150.522H42.4281L46.3566 146.612H87.999L91.9275 150.522H157.141L161.07 146.612H198.783L202.712 150.522H222.355L237.283 135.665V15.6388L222.355 0.782043H188.569L184.641 4.69171H46.3566L42.4281 0.782043Z" fill="#031A2A" fill-opacity="0.3"/>
<path d="M42.4281 0.782043H15.7142L0.785767 15.6388V135.665L15.7142 150.522H42.4281L46.3566 146.612H87.999L91.9275 150.522H157.141L161.07 146.612H198.783L202.712 150.522H222.355L237.283 135.665V15.6388L222.355 0.782043H188.569L184.641 4.69171H46.3566L42.4281 0.782043Z" stroke="#6DCEFF" stroke-opacity="0.3" stroke-width="0.813632"/>
</g>
<path d="M222.68 0H198.524L202.712 3.90967H221.569L234.14 16.4206L234.14 34.4051L238.069 39.0967L238.394 15.31L222.68 0Z" fill="#6DCEFF"/>
<path d="M15.3919 150.564L39.8696 150.564L35.6821 146.655L16.8252 146.655L4.25396 134.144L4.25388 116.159L2.25079e-05 111.468L2.04184e-05 135.254L15.3919 150.564Z" fill="#6DCEFF"/>
<rect x="20" y="21" width="56" height="18" rx="2" fill="#031A2A" fill-opacity="0.3"/>
<path d="M29.04 28.49V33H27.64V26H29.42L31.68 31.33L33.93 26H35.71V33H34.31V28.51L32.38 33H30.97L29.04 28.49ZM38.3855 26V33H36.9855V26H38.3855ZM39.6517 33V26H42.9617C44.9117 26 46.5817 27.42 46.5817 29.49C46.5817 31.49 44.8117 33 42.9617 33H39.6517ZM45.1817 29.49C45.1817 28.22 44.2417 27.34 42.9617 27.34H41.0517V31.66H42.9617C44.2317 31.66 45.1817 30.76 45.1817 29.49ZM47.5423 33V26H50.8523C52.8023 26 54.4723 27.42 54.4723 29.49C54.4723 31.49 52.7023 33 50.8523 33H47.5423ZM53.0723 29.49C53.0723 28.22 52.1323 27.34 50.8523 27.34H48.9423V31.66H50.8523C52.1223 31.66 53.0723 30.76 53.0723 29.49ZM55.433 33V26H56.833V31.66H60.993V33H55.433ZM62.2689 33V26H68.0489V27.29H63.6689V28.85H67.8889V30.14H63.6689V31.7H68.0489V33H62.2689Z" fill="#F0F3F7" fill-opacity="0.7"/>
<rect x="80" y="21" width="55" height="18" rx="2" fill="#031A2A" fill-opacity="0.3"/>
<path d="M93.77 31.05C93.77 32.21 92.64 33.15 90.77 33.15C88.89 33.15 87.43 32.23 87.33 30.85H88.79C88.94 31.52 89.73 31.95 90.75 31.95C91.7 31.95 92.37 31.55 92.37 31.01C92.37 29.34 87.42 31.04 87.42 27.84C87.42 26.61 88.72 25.85 90.44 25.85C92.26 25.85 93.54 26.72 93.65 27.99H92.2C92.08 27.45 91.34 27.01 90.44 27.01C89.46 27.01 88.82 27.38 88.82 27.88C88.82 29.43 93.77 27.81 93.77 31.05ZM94.7689 33V26H100.549V27.29H96.1689V28.85H100.389V30.14H96.1689V31.7H100.549V33H94.7689ZM103.229 28.33V33H101.829V26H102.949L107.299 30.64V26H108.699V33H107.569L103.229 28.33ZM111.354 26V33H109.954V26H111.354ZM112.31 29.51C112.31 27.4 113.95 25.85 116.15 25.85C118.34 25.85 119.98 27.32 119.98 29.51C119.98 31.67 118.34 33.15 116.15 33.15C113.96 33.15 112.31 31.59 112.31 29.51ZM113.71 29.51C113.71 30.86 114.73 31.81 116.15 31.81C117.6 31.81 118.58 30.86 118.58 29.51C118.58 28.13 117.6 27.19 116.15 27.19C114.72 27.19 113.71 28.13 113.71 29.51ZM125.801 33L124.251 30.96H122.351V33H120.951V26H124.551C126.051 26 127.291 26.99 127.291 28.48C127.291 29.46 126.651 30.28 125.781 30.69L127.541 33H125.801ZM125.891 28.48C125.891 27.79 125.331 27.29 124.551 27.29H122.351V29.65H124.551C125.321 29.65 125.891 29.14 125.891 28.48Z" fill="#F0F3F7" fill-opacity="0.7"/>
<path d="M34.1409 127H33.0018V117.692L28.299 124.673H27.3064L22.6036 117.692V127H21.432V115.398H22.4572L27.7946 123.387L33.1483 115.398H34.1409V127ZM46.6225 127H37.0054V115.398H46.7202L46.6225 116.537H38.177V120.637H45.7438L45.6787 121.776H38.177V125.877H46.7202L46.6225 127ZM49.4645 127H49.4482V115.398H49.4645C51.1569 115.267 53.0608 115.17 54.33 115.17C57.5683 115.17 60.7089 115.804 60.7089 121.191C60.7089 126.512 57.5683 127.163 54.3138 127.163C53.0608 127.163 51.1569 127.098 49.4645 127ZM54.2487 116.293C53.3537 116.293 51.9542 116.341 50.6199 116.439V125.942C51.9705 126.024 53.37 126.04 54.151 126.04C56.9825 126.04 59.5536 125.649 59.5536 121.191C59.5536 116.683 56.9825 116.293 54.2487 116.293ZM64.7313 127H63.5597V115.398H64.7313V127ZM78.694 127L77.3108 124.315H69.7766L68.4097 127H67.1079L73.0637 115.398H74.04L79.9958 127H78.694ZM73.5518 116.927L70.2973 123.29H76.7901L73.5518 116.927ZM86.5543 127V115.398C88.4419 115.284 90.5248 115.202 91.6476 115.202C94.4303 115.202 96.7735 115.642 96.7735 118.424C96.7735 119.824 96.1714 120.589 95.0486 120.995C96.4969 121.402 97.2617 122.216 97.2617 123.794C97.2617 126.74 94.6743 127.195 91.7615 127.195C90.476 127.195 88.4419 127.098 86.5543 127ZM91.6314 121.581H87.7259V125.942C89.2393 126.024 90.7201 126.072 91.6802 126.072C94.056 126.072 96.0901 125.78 96.0901 123.745C96.0901 121.842 94.3001 121.581 91.6314 121.581ZM91.6639 120.458C92.3148 120.458 92.9332 120.491 93.4864 120.54C94.9184 120.231 95.6019 119.628 95.6019 118.473C95.6019 116.618 93.8282 116.325 91.6314 116.325C90.7689 116.325 89.2556 116.374 87.7259 116.455V120.458H91.6639ZM109.811 122.558V115.398H110.967V122.558C110.967 125.877 108.558 127.228 105.548 127.228C102.505 127.228 100.08 125.877 100.08 122.558V115.398H101.252V122.558C101.252 125.08 103.188 126.121 105.548 126.121C107.875 126.121 109.811 125.08 109.811 122.558ZM113.303 115.398H114.751L119.291 120.719L123.864 115.398H125.312L119.877 121.711V127H118.738V121.711L113.303 115.398ZM137.25 127H127.633V115.398H137.348L137.25 116.537H128.805V120.637H136.372L136.306 121.776H128.805V125.877H137.348L137.25 127ZM141.248 127H140.076V115.398C142.094 115.284 144.307 115.202 145.511 115.202C148.456 115.202 150.621 115.691 150.621 119.059C150.621 121.467 149.498 122.411 147.789 122.737L150.377 126.919L150.36 127.016L149.189 127.163L146.536 122.899C146.211 122.916 145.869 122.916 145.511 122.916C144.535 122.916 142.891 122.867 141.248 122.785V127ZM149.449 119.059C149.449 116.651 147.757 116.325 145.479 116.325C144.535 116.325 142.907 116.39 141.248 116.472V121.663C142.907 121.744 144.535 121.793 145.479 121.793C147.757 121.793 149.449 121.467 149.449 119.059Z" fill="#6DCEFF"/>
<defs>
<filter id="filter0_b_348_177" x="-44.5336" y="-44.5372" width="327.136" height="240.378" filterUnits="userSpaceOnUse" color-interpolation-filters="sRGB">
<feFlood flood-opacity="0" result="BackgroundImageFix"/>
<feGaussianBlur in="BackgroundImageFix" stdDeviation="22.4562"/>
<feComposite in2="SourceAlpha" operator="in" result="effect1_backgroundBlur_348_177"/>
<feBlend mode="normal" in="SourceGraphic" in2="effect1_backgroundBlur_348_177" result="shape"/>
</filter>
</defs>
</svg>
