<svg width="239" height="151" viewBox="0 0 239 151" fill="none" xmlns="http://www.w3.org/2000/svg">
<g filter="url(#filter0_b_541_1180)">
<path d="M42.8223 0.782104H16.1083L1.17993 15.6388V135.665L16.1083 150.522H42.8223L46.7508 146.612H88.3932L92.3217 150.522H157.535L161.464 146.612H199.178L203.106 150.522H222.749L237.677 135.665V15.6388L222.749 0.782104H188.963L185.035 4.69177H46.7508L42.8223 0.782104Z" fill="#031A2A"/>
<path d="M42.8223 0.782104H16.1083L1.17993 15.6388V135.665L16.1083 150.522H42.8223L46.7508 146.612H88.3932L92.3217 150.522H157.535L161.464 146.612H199.178L203.106 150.522H222.749L237.677 135.665V15.6388L222.749 0.782104H188.963L185.035 4.69177H46.7508L42.8223 0.782104Z" stroke="#6DCEFF" stroke-opacity="0.3" stroke-width="0.813632"/>
</g>
<path d="M223.074 0H198.918L203.106 3.90967H221.963L234.534 16.4206L234.534 34.4051L238.463 39.0967L238.788 15.31L223.074 0Z" fill="#6DCEFF"/>
<path d="M15.7859 150.564L40.2637 150.564L36.0762 146.655L17.2193 146.655L4.648 134.144L4.64792 116.159L0.394065 111.468L0.394063 135.254L15.7859 150.564Z" fill="#6DCEFF"/>
<path d="M26.5605 126.908V116.445H21.581V115.306H32.5488L32.4512 116.445H27.7158V126.908H26.5605ZM34.7209 126.908V115.306H44.4357L44.3381 116.445H35.8926V120.546H43.4593L43.3942 121.685H35.8926V125.786H44.4357L44.3381 126.908H34.7209ZM56.8785 124.223H49.3443L47.9774 126.908H46.6756L52.6314 115.306H53.6077L59.5635 126.908H58.2617L56.8785 124.223ZM49.865 123.198H56.3578L53.1196 116.836L49.865 123.198ZM73.4966 126.908V117.601L68.7938 124.581H67.8012L63.0984 117.601V126.908H61.9267V115.306H62.9519L68.2893 123.296L73.643 115.306H74.6357V126.908H73.4966ZM91.3126 126.908H81.6954V115.306H82.8671V125.786H91.4102L91.3126 126.908ZM94.1383 126.908V115.306H103.853L103.755 116.445H95.3099V120.546H102.877L102.812 121.685H95.3099V125.786H103.853L103.755 126.908H94.1383ZM116.296 124.223H108.762L107.395 126.908H106.093L112.049 115.306H113.025L118.981 126.908H117.679L116.296 124.223ZM109.282 123.198H115.775L112.537 116.836L109.282 123.198ZM121.344 126.908V115.306H121.36C121.783 115.274 122.212 115.246 122.646 115.225C123.091 115.192 123.525 115.165 123.948 115.143C124.371 115.122 124.778 115.105 125.168 115.095C125.559 115.084 125.911 115.078 126.226 115.078C127.04 115.078 127.826 115.143 128.585 115.274C129.356 115.393 130.034 115.659 130.619 116.071C131.216 116.483 131.693 117.091 132.051 117.893C132.42 118.685 132.605 119.754 132.605 121.099C132.605 122.433 132.42 123.497 132.051 124.289C131.693 125.07 131.216 125.666 130.619 126.079C130.034 126.491 129.356 126.762 128.585 126.892C127.815 127.012 127.023 127.071 126.21 127.071C125.895 127.071 125.542 127.066 125.152 127.055C124.772 127.055 124.371 127.044 123.948 127.022C123.525 127.012 123.091 126.995 122.646 126.974C122.212 126.952 121.783 126.93 121.36 126.908H121.344ZM126.145 116.201C125.689 116.201 125.136 116.212 124.485 116.234C123.845 116.255 123.188 116.293 122.516 116.348V125.851C122.852 125.872 123.188 125.889 123.525 125.9C123.861 125.91 124.181 125.921 124.485 125.932C124.799 125.943 125.087 125.948 125.347 125.948C125.618 125.948 125.852 125.948 126.047 125.948C126.752 125.948 127.43 125.905 128.081 125.818C128.732 125.731 129.307 125.525 129.806 125.2C130.305 124.874 130.701 124.392 130.994 123.752C131.298 123.101 131.449 122.217 131.449 121.099C131.449 119.971 131.298 119.081 130.994 118.43C130.701 117.78 130.31 117.291 129.822 116.966C129.334 116.63 128.77 116.418 128.13 116.331C127.49 116.244 126.828 116.201 126.145 116.201Z" fill="#6DCEFF"/>
<defs>
<filter id="filter0_b_541_1180" x="-44.1393" y="-44.5372" width="327.136" height="240.378" filterUnits="userSpaceOnUse" color-interpolation-filters="sRGB">
<feFlood flood-opacity="0" result="BackgroundImageFix"/>
<feGaussianBlur in="BackgroundImageFix" stdDeviation="22.4562"/>
<feComposite in2="SourceAlpha" operator="in" result="effect1_backgroundBlur_541_1180"/>
<feBlend mode="normal" in="SourceGraphic" in2="effect1_backgroundBlur_541_1180" result="shape"/>
</filter>
</defs>
</svg>
