<svg width="239" height="151" viewBox="0 0 239 151" fill="none" xmlns="http://www.w3.org/2000/svg">
<g filter="url(#filter0_b_348_189)">
<path d="M42.4281 0.782043H15.7142L0.785767 15.6388V135.665L15.7142 150.522H42.4281L46.3566 146.612H87.999L91.9275 150.522H157.141L161.07 146.612H198.783L202.712 150.522H222.355L237.283 135.665V15.6388L222.355 0.782043H188.569L184.641 4.69171H46.3566L42.4281 0.782043Z" fill="#031A2A" fill-opacity="0.3"/>
<path d="M42.4281 0.782043H15.7142L0.785767 15.6388V135.665L15.7142 150.522H42.4281L46.3566 146.612H87.999L91.9275 150.522H157.141L161.07 146.612H198.783L202.712 150.522H222.355L237.283 135.665V15.6388L222.355 0.782043H188.569L184.641 4.69171H46.3566L42.4281 0.782043Z" stroke="#6DCEFF" stroke-opacity="0.3" stroke-width="0.813632"/>
</g>
<path d="M222.68 0H198.524L202.712 3.90967H221.569L234.14 16.4206L234.14 34.4051L238.069 39.0967L238.394 15.31L222.68 0Z" fill="#6DCEFF"/>
<path d="M15.3919 150.564L39.8696 150.564L35.6821 146.655L16.8252 146.655L4.25396 134.144L4.25388 116.159L2.25079e-05 111.468L2.04184e-05 135.254L15.3919 150.564Z" fill="#6DCEFF"/>
<rect x="20" y="21" width="56" height="18" rx="2" fill="#031A2A" fill-opacity="0.3"/>
<path d="M29.04 28.49V33H27.64V26H29.42L31.68 31.33L33.93 26H35.71V33H34.31V28.51L32.38 33H30.97L29.04 28.49ZM38.3855 26V33H36.9855V26H38.3855ZM39.6517 33V26H42.9617C44.9117 26 46.5817 27.42 46.5817 29.49C46.5817 31.49 44.8117 33 42.9617 33H39.6517ZM45.1817 29.49C45.1817 28.22 44.2417 27.34 42.9617 27.34H41.0517V31.66H42.9617C44.2317 31.66 45.1817 30.76 45.1817 29.49ZM47.5423 33V26H50.8523C52.8023 26 54.4723 27.42 54.4723 29.49C54.4723 31.49 52.7023 33 50.8523 33H47.5423ZM53.0723 29.49C53.0723 28.22 52.1323 27.34 50.8523 27.34H48.9423V31.66H50.8523C52.1223 31.66 53.0723 30.76 53.0723 29.49ZM55.433 33V26H56.833V31.66H60.993V33H55.433ZM62.2689 33V26H68.0489V27.29H63.6689V28.85H67.8889V30.14H63.6689V31.7H68.0489V33H62.2689Z" fill="#F0F3F7" fill-opacity="0.7"/>
<rect x="80" y="21" width="55" height="18" rx="2" fill="#031A2A" fill-opacity="0.3"/>
<path d="M93.77 31.05C93.77 32.21 92.64 33.15 90.77 33.15C88.89 33.15 87.43 32.23 87.33 30.85H88.79C88.94 31.52 89.73 31.95 90.75 31.95C91.7 31.95 92.37 31.55 92.37 31.01C92.37 29.34 87.42 31.04 87.42 27.84C87.42 26.61 88.72 25.85 90.44 25.85C92.26 25.85 93.54 26.72 93.65 27.99H92.2C92.08 27.45 91.34 27.01 90.44 27.01C89.46 27.01 88.82 27.38 88.82 27.88C88.82 29.43 93.77 27.81 93.77 31.05ZM94.7689 33V26H100.549V27.29H96.1689V28.85H100.389V30.14H96.1689V31.7H100.549V33H94.7689ZM103.229 28.33V33H101.829V26H102.949L107.299 30.64V26H108.699V33H107.569L103.229 28.33ZM111.354 26V33H109.954V26H111.354ZM112.31 29.51C112.31 27.4 113.95 25.85 116.15 25.85C118.34 25.85 119.98 27.32 119.98 29.51C119.98 31.67 118.34 33.15 116.15 33.15C113.96 33.15 112.31 31.59 112.31 29.51ZM113.71 29.51C113.71 30.86 114.73 31.81 116.15 31.81C117.6 31.81 118.58 30.86 118.58 29.51C118.58 28.13 117.6 27.19 116.15 27.19C114.72 27.19 113.71 28.13 113.71 29.51ZM125.801 33L124.251 30.96H122.351V33H120.951V26H124.551C126.051 26 127.291 26.99 127.291 28.48C127.291 29.46 126.651 30.28 125.781 30.69L127.541 33H125.801ZM125.891 28.48C125.891 27.79 125.331 27.29 124.551 27.29H122.351V29.65H124.551C125.321 29.65 125.891 29.14 125.891 28.48Z" fill="#F0F3F7" fill-opacity="0.7"/>
<path d="M21.4483 127H21.432V115.398H21.4483C23.1406 115.267 25.0445 115.17 26.3138 115.17C29.552 115.17 32.6927 115.804 32.6927 121.191C32.6927 126.512 29.552 127.163 26.2975 127.163C25.0445 127.163 23.1406 127.098 21.4483 127ZM26.2324 116.293C25.3374 116.293 23.938 116.341 22.6036 116.439V125.942C23.9542 126.024 25.3537 126.04 26.1348 126.04C28.9662 126.04 31.5373 125.649 31.5373 121.191C31.5373 116.683 28.9662 116.293 26.2324 116.293ZM45.1605 127H35.5434V115.398H45.2582L45.1605 116.537H36.715V120.637H44.2818L44.2167 121.776H36.715V125.877H45.2582L45.1605 127ZM52.7541 126.121C54.5116 126.121 56.8386 125.942 56.8386 124.006C56.8386 122.346 55.1137 122.134 52.9006 121.776C50.1831 121.305 48.0188 120.947 48.0188 118.392C48.0188 115.707 50.4434 115.17 52.9657 115.17C54.2675 115.17 55.9436 115.316 57.4895 115.528L57.4081 116.651C55.8622 116.374 54.2024 116.293 53.0145 116.293C51.1757 116.293 49.1904 116.472 49.1904 118.424C49.1904 120.019 50.4922 120.247 52.9006 120.637C55.7971 121.126 57.9939 121.565 57.9939 124.006C57.9939 126.772 55.195 127.228 52.9006 127.228C51.4198 127.228 49.5972 127.098 47.8723 126.87L47.9374 125.747C49.6786 126.04 51.5011 126.121 52.7541 126.121ZM61.9186 127H60.7469V115.398H61.9186V127ZM65.8736 121.191C65.8736 125.666 68.5585 126.089 71.2435 126.089C72.3013 126.089 73.5705 126.04 74.791 125.812V121.776H70.0231V120.637H75.9626V126.691C74.1563 127.033 72.6918 127.212 71.0971 127.212C67.9727 127.212 64.7182 126.528 64.7182 121.191C64.7182 115.853 67.9565 115.17 71.1459 115.17C72.6104 115.17 74.1401 115.316 75.6371 115.528L75.5395 116.651C74.1238 116.374 72.4965 116.293 71.2761 116.293C68.5585 116.293 65.8736 116.699 65.8736 121.191ZM89.6362 127H88.7086L80.0028 117.35V127H78.8312V115.398H79.7912L88.4808 125.064V115.398H89.6362V127ZM102.115 127H92.4976V115.398H102.212L102.115 116.537H93.6692V120.637H101.236L101.171 121.776H93.6692V125.877H102.212L102.115 127ZM106.112 127H104.94V115.398C106.958 115.284 109.171 115.202 110.376 115.202C113.321 115.202 115.485 115.691 115.485 119.059C115.485 121.467 114.362 122.411 112.654 122.737L115.241 126.919L115.225 127.016L114.053 127.163L111.401 122.899C111.075 122.916 110.734 122.916 110.376 122.916C109.399 122.916 107.756 122.867 106.112 122.785V127ZM114.313 119.059C114.313 116.651 112.621 116.325 110.343 116.325C109.399 116.325 107.772 116.39 106.112 116.472V121.663C107.772 121.744 109.399 121.793 110.343 121.793C112.621 121.793 114.313 121.467 114.313 119.059Z" fill="#6DCEFF"/>
<defs>
<filter id="filter0_b_348_189" x="-44.5336" y="-44.5372" width="327.136" height="240.378" filterUnits="userSpaceOnUse" color-interpolation-filters="sRGB">
<feFlood flood-opacity="0" result="BackgroundImageFix"/>
<feGaussianBlur in="BackgroundImageFix" stdDeviation="22.4562"/>
<feComposite in2="SourceAlpha" operator="in" result="effect1_backgroundBlur_348_189"/>
<feBlend mode="normal" in="SourceGraphic" in2="effect1_backgroundBlur_348_189" result="shape"/>
</filter>
</defs>
</svg>
