<svg width="239" height="151" viewBox="0 0 239 151" fill="none" xmlns="http://www.w3.org/2000/svg">
<g filter="url(#filter0_b_541_943)">
<path d="M42.4281 0.782104H15.7142L0.785767 15.6388V135.665L15.7142 150.522H42.4281L46.3566 146.612H87.999L91.9275 150.522H157.141L161.07 146.612H198.783L202.712 150.522H222.355L237.283 135.665V15.6388L222.355 0.782104H188.569L184.641 4.69177H46.3566L42.4281 0.782104Z" fill="#031A2A"/>
<path d="M42.4281 0.782104H15.7142L0.785767 15.6388V135.665L15.7142 150.522H42.4281L46.3566 146.612H87.999L91.9275 150.522H157.141L161.07 146.612H198.783L202.712 150.522H222.355L237.283 135.665V15.6388L222.355 0.782104H188.569L184.641 4.69177H46.3566L42.4281 0.782104Z" stroke="#6DCEFF" stroke-opacity="0.3" stroke-width="0.813632"/>
</g>
<path d="M222.68 0H198.524L202.712 3.90967H221.569L234.14 16.4206L234.14 34.4051L238.069 39.0967L238.394 15.31L222.68 0Z" fill="#6DCEFF"/>
<path d="M15.3919 150.564L39.8696 150.564L35.6821 146.655L16.8252 146.655L4.25396 134.144L4.25388 116.159L2.25079e-05 111.468L2.04184e-05 135.254L15.3919 150.564Z" fill="#6DCEFF"/>
<rect x="20" y="21" width="56" height="18" rx="2" fill="#031A2A" fill-opacity="0.3"/>
<path d="M29.04 28.49V33H27.64V26H29.42L31.68 31.33L33.93 26H35.71V33H34.31V28.51L32.38 33H30.97L29.04 28.49ZM38.3855 26V33H36.9855V26H38.3855ZM39.6517 33V26H42.9617C44.9117 26 46.5817 27.42 46.5817 29.49C46.5817 31.49 44.8117 33 42.9617 33H39.6517ZM45.1817 29.49C45.1817 28.22 44.2417 27.34 42.9617 27.34H41.0517V31.66H42.9617C44.2317 31.66 45.1817 30.76 45.1817 29.49ZM47.5423 33V26H50.8523C52.8023 26 54.4723 27.42 54.4723 29.49C54.4723 31.49 52.7023 33 50.8523 33H47.5423ZM53.0723 29.49C53.0723 28.22 52.1323 27.34 50.8523 27.34H48.9423V31.66H50.8523C52.1223 31.66 53.0723 30.76 53.0723 29.49ZM55.433 33V26H56.833V31.66H60.993V33H55.433ZM62.2689 33V26H68.0489V27.29H63.6689V28.85H67.8889V30.14H63.6689V31.7H68.0489V33H62.2689Z" fill="#F0F3F7" fill-opacity="0.7"/>
<rect x="80" y="21" width="55" height="18" rx="2" fill="#031A2A" fill-opacity="0.3"/>
<path d="M93.77 31.05C93.77 32.21 92.64 33.15 90.77 33.15C88.89 33.15 87.43 32.23 87.33 30.85H88.79C88.94 31.52 89.73 31.95 90.75 31.95C91.7 31.95 92.37 31.55 92.37 31.01C92.37 29.34 87.42 31.04 87.42 27.84C87.42 26.61 88.72 25.85 90.44 25.85C92.26 25.85 93.54 26.72 93.65 27.99H92.2C92.08 27.45 91.34 27.01 90.44 27.01C89.46 27.01 88.82 27.38 88.82 27.88C88.82 29.43 93.77 27.81 93.77 31.05ZM94.7689 33V26H100.549V27.29H96.1689V28.85H100.389V30.14H96.1689V31.7H100.549V33H94.7689ZM103.229 28.33V33H101.829V26H102.949L107.299 30.64V26H108.699V33H107.569L103.229 28.33ZM111.354 26V33H109.954V26H111.354ZM112.31 29.51C112.31 27.4 113.95 25.85 116.15 25.85C118.34 25.85 119.98 27.32 119.98 29.51C119.98 31.67 118.34 33.15 116.15 33.15C113.96 33.15 112.31 31.59 112.31 29.51ZM113.71 29.51C113.71 30.86 114.73 31.81 116.15 31.81C117.6 31.81 118.58 30.86 118.58 29.51C118.58 28.13 117.6 27.19 116.15 27.19C114.72 27.19 113.71 28.13 113.71 29.51ZM125.801 33L124.251 30.96H122.351V33H120.951V26H124.551C126.051 26 127.291 26.99 127.291 28.48C127.291 29.46 126.651 30.28 125.781 30.69L127.541 33H125.801ZM125.891 28.48C125.891 27.79 125.331 27.29 124.551 27.29H122.351V29.65H124.551C125.321 29.65 125.891 29.14 125.891 28.48Z" fill="#F0F3F7" fill-opacity="0.7"/>
<path d="M33.0018 127V117.692L28.299 124.673H27.3064L22.6036 117.692V127H21.432V115.398H22.4572L27.7946 123.387L33.1483 115.398H34.1409V127H33.0018ZM37.0054 127V115.398H46.7202L46.6225 116.537H38.177V120.637H45.7438L45.6787 121.776H38.177V125.877H46.7202L46.6225 127H37.0054ZM49.4482 127V115.398H49.4645C49.8876 115.365 50.3161 115.338 50.7501 115.316C51.1948 115.284 51.6288 115.257 52.0519 115.235C52.475 115.213 52.8818 115.197 53.2723 115.186C53.6629 115.175 54.0154 115.17 54.33 115.17C55.1437 115.17 55.9302 115.235 56.6896 115.365C57.4598 115.484 58.1378 115.75 58.7237 116.162C59.3203 116.575 59.7976 117.182 60.1556 117.985C60.5245 118.777 60.7089 119.845 60.7089 121.191C60.7089 122.525 60.5245 123.588 60.1556 124.38C59.7976 125.161 59.3203 125.758 58.7237 126.17C58.1378 126.582 57.4598 126.854 56.6896 126.984C55.9193 127.103 55.1274 127.163 54.3138 127.163C53.9992 127.163 53.6466 127.157 53.256 127.146C52.8764 127.146 52.475 127.136 52.0519 127.114C51.6288 127.103 51.1948 127.087 50.7501 127.065C50.3161 127.043 49.8876 127.022 49.4645 127H49.4482ZM54.2487 116.293C53.793 116.293 53.2398 116.303 52.5889 116.325C51.9488 116.347 51.2925 116.385 50.6199 116.439V125.942C50.9562 125.964 51.2925 125.98 51.6288 125.991C51.9651 126.002 52.2851 126.013 52.5889 126.024C52.9035 126.034 53.191 126.04 53.4513 126.04C53.7225 126.04 53.9558 126.04 54.151 126.04C54.8562 126.04 55.5342 125.997 56.1851 125.91C56.836 125.823 57.411 125.617 57.91 125.291C58.409 124.966 58.805 124.483 59.0979 123.843C59.4017 123.192 59.5536 122.308 59.5536 121.191C59.5536 120.062 59.4017 119.173 59.0979 118.522C58.805 117.871 58.4145 117.383 57.9263 117.057C57.4381 116.721 56.874 116.51 56.2339 116.423C55.5939 116.336 54.9321 116.293 54.2487 116.293ZM63.5597 127V115.398H64.7313V127H63.5597ZM77.3108 124.315H69.7766L68.4097 127H67.1079L73.0637 115.398H74.04L79.9958 127H78.694L77.3108 124.315ZM70.2973 123.29H76.7901L73.5518 116.927L70.2973 123.29ZM86.5543 115.398C87.0208 115.365 87.4981 115.338 87.9863 115.316C88.4745 115.295 88.941 115.278 89.3857 115.267C89.8305 115.246 90.2482 115.229 90.6387 115.219C91.0293 115.208 91.3656 115.202 91.6476 115.202C92.3419 115.202 92.9983 115.24 93.6166 115.316C94.2458 115.392 94.7937 115.544 95.2602 115.772C95.7266 116 96.0955 116.325 96.3667 116.748C96.6379 117.171 96.7735 117.73 96.7735 118.424C96.7735 119.129 96.6271 119.683 96.3341 120.084C96.0412 120.486 95.6127 120.789 95.0486 120.995C95.7755 121.202 96.3233 121.522 96.6921 121.955C97.0718 122.389 97.2617 123.002 97.2617 123.794C97.2617 124.532 97.1098 125.123 96.8061 125.568C96.5131 126.013 96.1118 126.36 95.6019 126.609C95.1029 126.848 94.517 127.005 93.8444 127.081C93.1827 127.157 92.4884 127.195 91.7615 127.195C91.4361 127.195 91.0727 127.19 90.6713 127.179C90.2699 127.168 89.8414 127.152 89.3857 127.13C88.9301 127.119 88.4582 127.098 87.97 127.065C87.4927 127.043 87.0208 127.022 86.5543 127V115.398ZM87.7259 121.581V125.942C88.4853 125.986 89.2122 126.018 89.9065 126.04C90.6008 126.062 91.192 126.072 91.6802 126.072C92.2768 126.072 92.841 126.045 93.3725 125.991C93.9041 125.937 94.3706 125.828 94.772 125.666C95.1734 125.503 95.4934 125.27 95.7321 124.966C95.9707 124.662 96.0901 124.255 96.0901 123.745C96.0901 123.268 95.9816 122.888 95.7646 122.606C95.5476 122.324 95.2439 122.107 94.8533 121.955C94.4628 121.804 93.9909 121.706 93.4376 121.663C92.8952 121.608 92.2931 121.581 91.6314 121.581H87.7259ZM91.6639 120.458C91.9894 120.458 92.304 120.469 92.6077 120.491C92.9115 120.502 93.2044 120.518 93.4864 120.54C94.2024 120.388 94.734 120.155 95.0812 119.84C95.4283 119.515 95.6019 119.059 95.6019 118.473C95.6019 118.007 95.4988 117.632 95.2927 117.35C95.0866 117.068 94.8045 116.851 94.4465 116.699C94.0885 116.548 93.6654 116.45 93.1773 116.407C92.6999 116.352 92.1846 116.325 91.6314 116.325C91.1974 116.325 90.6279 116.336 89.9227 116.358C89.2284 116.379 88.4962 116.412 87.7259 116.455V120.458H91.6639ZM109.811 115.398H110.967V122.558C110.967 123.393 110.826 124.103 110.544 124.689C110.262 125.275 109.877 125.758 109.388 126.138C108.9 126.517 108.325 126.794 107.663 126.967C107.002 127.141 106.297 127.228 105.548 127.228C104.789 127.228 104.073 127.141 103.4 126.967C102.738 126.794 102.158 126.517 101.659 126.138C101.171 125.758 100.786 125.275 100.504 124.689C100.221 124.103 100.08 123.393 100.08 122.558V115.398H101.252V122.558C101.252 123.187 101.366 123.729 101.594 124.185C101.822 124.63 102.131 124.998 102.521 125.291C102.912 125.573 103.367 125.785 103.888 125.926C104.409 126.056 104.962 126.121 105.548 126.121C106.134 126.121 106.682 126.056 107.192 125.926C107.712 125.785 108.162 125.573 108.542 125.291C108.933 124.998 109.242 124.63 109.47 124.185C109.698 123.729 109.811 123.187 109.811 122.558V115.398ZM114.751 115.398L119.291 120.719L123.864 115.398H125.312L119.877 121.711V127H118.738V121.711L113.303 115.398H114.751ZM127.633 127V115.398H137.348L137.25 116.537H128.805V120.637H136.372L136.306 121.776H128.805V125.877H137.348L137.25 127H127.633ZM140.076 127V115.398C140.575 115.365 141.085 115.338 141.606 115.316C142.126 115.295 142.625 115.278 143.103 115.267C143.58 115.246 144.025 115.229 144.437 115.219C144.849 115.208 145.207 115.202 145.511 115.202C146.249 115.202 146.927 115.246 147.545 115.333C148.174 115.419 148.717 115.598 149.172 115.87C149.628 116.141 149.981 116.531 150.23 117.041C150.49 117.54 150.621 118.213 150.621 119.059C150.621 119.666 150.55 120.182 150.409 120.605C150.279 121.028 150.089 121.386 149.84 121.679C149.601 121.972 149.303 122.205 148.945 122.379C148.597 122.541 148.212 122.661 147.789 122.737L150.377 126.919L150.36 127.016L149.189 127.163L146.536 122.899C146.374 122.91 146.205 122.916 146.032 122.916C145.869 122.916 145.695 122.916 145.511 122.916C145.023 122.916 144.394 122.905 143.623 122.883C142.864 122.861 142.072 122.829 141.248 122.785V127H140.076ZM149.449 119.059C149.449 118.462 149.346 117.985 149.14 117.627C148.945 117.258 148.668 116.981 148.31 116.797C147.963 116.602 147.545 116.477 147.057 116.423C146.569 116.358 146.043 116.325 145.479 116.325C145.001 116.325 144.383 116.341 143.623 116.374C142.875 116.396 142.083 116.428 141.248 116.472V121.663C142.083 121.706 142.875 121.739 143.623 121.76C144.383 121.782 145.001 121.793 145.479 121.793C146.043 121.793 146.569 121.766 147.057 121.711C147.545 121.646 147.963 121.522 148.31 121.337C148.668 121.142 148.945 120.865 149.14 120.507C149.346 120.149 149.449 119.666 149.449 119.059Z" fill="#6DCEFF"/>
<defs>
<filter id="filter0_b_541_943" x="-44.5336" y="-44.5372" width="327.136" height="240.378" filterUnits="userSpaceOnUse" color-interpolation-filters="sRGB">
<feFlood flood-opacity="0" result="BackgroundImageFix"/>
<feGaussianBlur in="BackgroundImageFix" stdDeviation="22.4562"/>
<feComposite in2="SourceAlpha" operator="in" result="effect1_backgroundBlur_541_943"/>
<feBlend mode="normal" in="SourceGraphic" in2="effect1_backgroundBlur_541_943" result="shape"/>
</filter>
</defs>
</svg>
