<svg width="239" height="151" viewBox="0 0 239 151" fill="none" xmlns="http://www.w3.org/2000/svg">
<g filter="url(#filter0_b_541_1205)">
<path d="M42.428 0.782104H15.714L0.785645 15.6388V135.665L15.714 150.522H42.428L46.3565 146.612H87.9989L91.9274 150.522H157.141L161.069 146.612H198.783L202.712 150.522H222.354L237.283 135.665V15.6388L222.354 0.782104H188.569L184.641 4.69177H46.3565L42.428 0.782104Z" fill="#031A2A"/>
<path d="M42.428 0.782104H15.714L0.785645 15.6388V135.665L15.714 150.522H42.428L46.3565 146.612H87.9989L91.9274 150.522H157.141L161.069 146.612H198.783L202.712 150.522H222.354L237.283 135.665V15.6388L222.354 0.782104H188.569L184.641 4.69177H46.3565L42.428 0.782104Z" stroke="#6DCEFF" stroke-opacity="0.3" stroke-width="0.813632"/>
</g>
<path d="M222.68 0H198.524L202.712 3.90967H221.569L234.14 16.4206L234.14 34.4051L238.069 39.0967L238.394 15.31L222.68 0Z" fill="#6DCEFF"/>
<path d="M15.3919 150.564L39.8696 150.564L35.6821 146.655L16.8252 146.655L4.25396 134.144L4.25388 116.159L2.25079e-05 111.468L2.04184e-05 135.254L15.3919 150.564Z" fill="#6DCEFF"/>
<rect x="20" y="21" width="56" height="18" rx="2" fill="#031A2A" fill-opacity="0.3"/>
<path d="M29.04 28.49V33H27.64V26H29.42L31.68 31.33L33.93 26H35.71V33H34.31V28.51L32.38 33H30.97L29.04 28.49ZM38.3855 26V33H36.9855V26H38.3855ZM39.6517 33V26H42.9617C44.9117 26 46.5817 27.42 46.5817 29.49C46.5817 31.49 44.8117 33 42.9617 33H39.6517ZM45.1817 29.49C45.1817 28.22 44.2417 27.34 42.9617 27.34H41.0517V31.66H42.9617C44.2317 31.66 45.1817 30.76 45.1817 29.49ZM47.5423 33V26H50.8523C52.8023 26 54.4723 27.42 54.4723 29.49C54.4723 31.49 52.7023 33 50.8523 33H47.5423ZM53.0723 29.49C53.0723 28.22 52.1323 27.34 50.8523 27.34H48.9423V31.66H50.8523C52.1223 31.66 53.0723 30.76 53.0723 29.49ZM55.433 33V26H56.833V31.66H60.993V33H55.433ZM62.2689 33V26H68.0489V27.29H63.6689V28.85H67.8889V30.14H63.6689V31.7H68.0489V33H62.2689Z" fill="#F0F3F7" fill-opacity="0.7"/>
<rect x="80" y="21" width="55" height="18" rx="2" fill="#031A2A" fill-opacity="0.3"/>
<path d="M93.77 31.05C93.77 32.21 92.64 33.15 90.77 33.15C88.89 33.15 87.43 32.23 87.33 30.85H88.79C88.94 31.52 89.73 31.95 90.75 31.95C91.7 31.95 92.37 31.55 92.37 31.01C92.37 29.34 87.42 31.04 87.42 27.84C87.42 26.61 88.72 25.85 90.44 25.85C92.26 25.85 93.54 26.72 93.65 27.99H92.2C92.08 27.45 91.34 27.01 90.44 27.01C89.46 27.01 88.82 27.38 88.82 27.88C88.82 29.43 93.77 27.81 93.77 31.05ZM94.7689 33V26H100.549V27.29H96.1689V28.85H100.389V30.14H96.1689V31.7H100.549V33H94.7689ZM103.229 28.33V33H101.829V26H102.949L107.299 30.64V26H108.699V33H107.569L103.229 28.33ZM111.354 26V33H109.954V26H111.354ZM112.31 29.51C112.31 27.4 113.95 25.85 116.15 25.85C118.34 25.85 119.98 27.32 119.98 29.51C119.98 31.67 118.34 33.15 116.15 33.15C113.96 33.15 112.31 31.59 112.31 29.51ZM113.71 29.51C113.71 30.86 114.73 31.81 116.15 31.81C117.6 31.81 118.58 30.86 118.58 29.51C118.58 28.13 117.6 27.19 116.15 27.19C114.72 27.19 113.71 28.13 113.71 29.51ZM125.801 33L124.251 30.96H122.351V33H120.951V26H124.551C126.051 26 127.291 26.99 127.291 28.48C127.291 29.46 126.651 30.28 125.781 30.69L127.541 33H125.801ZM125.891 28.48C125.891 27.79 125.331 27.29 124.551 27.29H122.351V29.65H124.551C125.321 29.65 125.891 29.14 125.891 28.48Z" fill="#F0F3F7" fill-opacity="0.7"/>
<path d="M21.432 127V115.398H21.4483C21.8714 115.365 22.2999 115.338 22.7338 115.316C23.1786 115.284 23.6125 115.257 24.0356 115.235C24.4587 115.213 24.8655 115.197 25.2561 115.186C25.6466 115.175 25.9992 115.17 26.3138 115.17C27.1274 115.17 27.9139 115.235 28.6733 115.365C29.4436 115.484 30.1216 115.75 30.7074 116.162C31.3041 116.575 31.7814 117.182 32.1394 117.985C32.5082 118.777 32.6927 119.845 32.6927 121.191C32.6927 122.525 32.5082 123.588 32.1394 124.38C31.7814 125.161 31.3041 125.758 30.7074 126.17C30.1216 126.582 29.4436 126.854 28.6733 126.984C27.9031 127.103 27.1111 127.163 26.2975 127.163C25.9829 127.163 25.6303 127.157 25.2398 127.146C24.8601 127.146 24.4587 127.136 24.0356 127.114C23.6125 127.103 23.1786 127.087 22.7338 127.065C22.2999 127.043 21.8714 127.022 21.4483 127H21.432ZM26.2324 116.293C25.7768 116.293 25.2235 116.303 24.5726 116.325C23.9326 116.347 23.2762 116.385 22.6036 116.439V125.942C22.9399 125.964 23.2762 125.98 23.6125 125.991C23.9488 126.002 24.2689 126.013 24.5726 126.024C24.8872 126.034 25.1747 126.04 25.4351 126.04C25.7063 126.04 25.9395 126.04 26.1348 126.04C26.8399 126.04 27.518 125.997 28.1689 125.91C28.8198 125.823 29.3947 125.617 29.8938 125.291C30.3928 124.966 30.7888 124.483 31.0817 123.843C31.3854 123.192 31.5373 122.308 31.5373 121.191C31.5373 120.062 31.3854 119.173 31.0817 118.522C30.7888 117.871 30.3982 117.383 29.91 117.057C29.4219 116.721 28.8577 116.51 28.2177 116.423C27.5776 116.336 26.9159 116.293 26.2324 116.293ZM35.5434 127V115.398H45.2582L45.1605 116.537H36.715V120.637H44.2818L44.2167 121.776H36.715V125.877H45.2582L45.1605 127H35.5434ZM52.7541 126.121C53.1881 126.121 53.6437 126.105 54.121 126.072C54.6092 126.029 55.054 125.937 55.4554 125.796C55.8568 125.644 56.1877 125.432 56.448 125.161C56.7084 124.879 56.8386 124.494 56.8386 124.006C56.8386 123.594 56.7355 123.263 56.5294 123.013C56.3341 122.764 56.0575 122.563 55.6995 122.411C55.3415 122.248 54.9238 122.124 54.4465 122.037C53.9692 121.95 53.4539 121.863 52.9006 121.776C52.2171 121.657 51.5771 121.538 50.9804 121.418C50.3946 121.288 49.8793 121.104 49.4345 120.865C49.0006 120.627 48.6534 120.317 48.3931 119.938C48.1436 119.547 48.0188 119.032 48.0188 118.392C48.0188 117.719 48.1544 117.177 48.4256 116.765C48.7077 116.341 49.0765 116.011 49.5322 115.772C49.9986 115.533 50.5302 115.376 51.1269 115.3C51.7235 115.213 52.3365 115.17 52.9657 115.17C53.6166 115.17 54.338 115.202 55.1299 115.267C55.9219 115.333 56.7084 115.419 57.4895 115.528L57.4081 116.651C56.627 116.51 55.8459 116.417 55.0648 116.374C54.2946 116.32 53.6112 116.293 53.0145 116.293C52.5589 116.293 52.1032 116.314 51.6476 116.358C51.192 116.39 50.7797 116.482 50.4109 116.634C50.0529 116.775 49.76 116.987 49.5322 117.269C49.3043 117.551 49.1904 117.936 49.1904 118.424C49.1904 118.826 49.2718 119.151 49.4345 119.401C49.5972 119.639 49.8305 119.835 50.1342 119.986C50.4488 120.138 50.834 120.263 51.2896 120.361C51.7561 120.448 52.2931 120.54 52.9006 120.637C53.6274 120.757 54.3 120.887 54.9184 121.028C55.5368 121.169 56.0738 121.359 56.5294 121.597C56.985 121.825 57.343 122.134 57.6034 122.525C57.8637 122.905 57.9939 123.398 57.9939 124.006C57.9939 124.7 57.8366 125.259 57.522 125.682C57.2074 126.105 56.8006 126.43 56.3016 126.658C55.8134 126.886 55.2655 127.038 54.658 127.114C54.0614 127.19 53.4756 127.228 52.9006 127.228C52.152 127.228 51.3438 127.195 50.476 127.13C49.6081 127.076 48.7402 126.989 47.8723 126.87L47.9374 125.747C48.8162 125.899 49.6786 126.002 50.5248 126.056C51.3818 126.1 52.1249 126.121 52.7541 126.121ZM60.7469 127V115.398H61.9186V127H60.7469ZM65.8736 121.191C65.8736 122.308 66.0254 123.192 66.3292 123.843C66.6438 124.494 67.0506 124.988 67.5496 125.324C68.0595 125.649 68.6345 125.861 69.2745 125.959C69.9146 126.045 70.5709 126.089 71.2435 126.089C71.7751 126.089 72.3446 126.072 72.9522 126.04C73.5597 126.007 74.1726 125.931 74.791 125.812V121.776H70.0231V120.637H75.9626V126.691C75.0513 126.864 74.2106 126.995 73.4403 127.081C72.6809 127.168 71.8999 127.212 71.0971 127.212C70.5764 127.212 70.0556 127.184 69.5349 127.13C69.025 127.087 68.5314 126.989 68.0541 126.837C67.5768 126.685 67.1374 126.474 66.736 126.203C66.3346 125.931 65.982 125.573 65.6783 125.129C65.3745 124.684 65.1359 124.141 64.9623 123.501C64.7996 122.85 64.7182 122.08 64.7182 121.191C64.7182 119.856 64.9026 118.793 65.2715 118.001C65.6403 117.209 66.1285 116.602 66.736 116.179C67.3435 115.756 68.027 115.484 68.7864 115.365C69.5566 115.235 70.3431 115.17 71.1459 115.17C71.8836 115.17 72.6267 115.202 73.3752 115.267C74.1346 115.333 74.8886 115.419 75.6371 115.528L75.5395 116.651C74.8235 116.51 74.0858 116.417 73.3264 116.374C72.5779 116.32 71.8944 116.293 71.2761 116.293C70.8204 116.293 70.3702 116.309 69.9254 116.341C69.4915 116.374 69.0738 116.45 68.6725 116.569C68.2711 116.678 67.8968 116.84 67.5496 117.057C67.2133 117.274 66.9204 117.567 66.6709 117.936C66.4214 118.294 66.2261 118.739 66.0851 119.271C65.9441 119.802 65.8736 120.442 65.8736 121.191ZM88.7086 127L80.0028 117.35V127H78.8312V115.398H79.7912L88.4808 125.064V115.398H89.6362V127H88.7086ZM92.4976 127V115.398H102.212L102.115 116.537H93.6692V120.637H101.236L101.171 121.776H93.6692V125.877H102.212L102.115 127H92.4976ZM104.94 127V115.398C105.439 115.365 105.949 115.338 106.47 115.316C106.991 115.295 107.49 115.278 107.967 115.267C108.445 115.246 108.889 115.229 109.302 115.219C109.714 115.208 110.072 115.202 110.376 115.202C111.113 115.202 111.791 115.246 112.41 115.333C113.039 115.419 113.581 115.598 114.037 115.87C114.492 116.141 114.845 116.531 115.095 117.041C115.355 117.54 115.485 118.213 115.485 119.059C115.485 119.666 115.415 120.182 115.274 120.605C115.143 121.028 114.954 121.386 114.704 121.679C114.465 121.972 114.167 122.205 113.809 122.379C113.462 122.541 113.077 122.661 112.654 122.737L115.241 126.919L115.225 127.016L114.053 127.163L111.401 122.899C111.238 122.91 111.07 122.916 110.896 122.916C110.734 122.916 110.56 122.916 110.376 122.916C109.887 122.916 109.258 122.905 108.488 122.883C107.729 122.861 106.937 122.829 106.112 122.785V127H104.94ZM114.313 119.059C114.313 118.462 114.21 117.985 114.004 117.627C113.809 117.258 113.532 116.981 113.174 116.797C112.827 116.602 112.41 116.477 111.921 116.423C111.433 116.358 110.907 116.325 110.343 116.325C109.866 116.325 109.247 116.341 108.488 116.374C107.739 116.396 106.947 116.428 106.112 116.472V121.663C106.947 121.706 107.739 121.739 108.488 121.76C109.247 121.782 109.866 121.793 110.343 121.793C110.907 121.793 111.433 121.766 111.921 121.711C112.41 121.646 112.827 121.522 113.174 121.337C113.532 121.142 113.809 120.865 114.004 120.507C114.21 120.149 114.313 119.666 114.313 119.059Z" fill="#6DCEFF"/>
<defs>
<filter id="filter0_b_541_1205" x="-44.5336" y="-44.5372" width="327.135" height="240.378" filterUnits="userSpaceOnUse" color-interpolation-filters="sRGB">
<feFlood flood-opacity="0" result="BackgroundImageFix"/>
<feGaussianBlur in="BackgroundImageFix" stdDeviation="22.4562"/>
<feComposite in2="SourceAlpha" operator="in" result="effect1_backgroundBlur_541_1205"/>
<feBlend mode="normal" in="SourceGraphic" in2="effect1_backgroundBlur_541_1205" result="shape"/>
</filter>
</defs>
</svg>
